<svg width="25" height="25" viewBox="0 0 25 25" fill="none" xmlns="http://www.w3.org/2000/svg">
<path d="M6.61933 8.91303V16.5215H4.85852V10.326H3.33683V8.91303H6.61933ZM13.1474 12.5216C13.5242 12.71 13.8104 12.9564 14.0061 13.2607C14.209 13.5651 14.3104 13.9165 14.3104 14.315C14.3104 14.786 14.1764 15.1991 13.9083 15.5541C13.6401 15.9019 13.2633 16.1737 12.7779 16.3693C12.2924 16.5577 11.7308 16.6519 11.0931 16.6519C10.4555 16.6519 9.89388 16.5577 9.40839 16.3693C8.93015 16.1737 8.55697 15.9019 8.28886 15.5541C8.028 15.1991 7.89757 14.786 7.89757 14.315C7.89757 13.9165 7.99539 13.5651 8.19104 13.2607C8.39393 12.9564 8.68015 12.71 9.04971 12.5216C8.76711 12.3477 8.54972 12.1303 8.39755 11.8695C8.24539 11.6013 8.1693 11.297 8.1693 10.9564C8.1693 10.5144 8.29249 10.1304 8.53885 9.8043C8.78522 9.47823 9.12942 9.22823 9.57143 9.05433C10.0134 8.87317 10.5207 8.7826 11.0931 8.7826C11.6728 8.7826 12.1837 8.87317 12.6257 9.05433C13.0749 9.22823 13.4228 9.47823 13.6691 9.8043C13.9155 10.1304 14.0387 10.5144 14.0387 10.9564C14.0387 11.297 13.9626 11.6013 13.8104 11.8695C13.6583 12.1303 13.4373 12.3477 13.1474 12.5216ZM11.0931 10.076C10.7381 10.076 10.4518 10.163 10.2345 10.3369C10.0243 10.5036 9.91925 10.7354 9.91925 11.0325C9.91925 11.3224 10.0243 11.5506 10.2345 11.7173C10.4446 11.8839 10.7308 11.9673 11.0931 11.9673C11.4554 11.9673 11.7453 11.8839 11.9627 11.7173C12.18 11.5506 12.2887 11.3224 12.2887 11.0325C12.2887 10.7354 12.18 10.5036 11.9627 10.3369C11.7453 10.163 11.4554 10.076 11.0931 10.076ZM11.0931 15.3585C11.5351 15.3585 11.883 15.2607 12.1366 15.065C12.3974 14.8621 12.5279 14.594 12.5279 14.2607C12.5279 13.9274 12.3974 13.6629 12.1366 13.4672C11.883 13.2716 11.5351 13.1738 11.0931 13.1738C10.6584 13.1738 10.3142 13.2716 10.0605 13.4672C9.80693 13.6629 9.68012 13.9274 9.68012 14.2607C9.68012 14.6013 9.80693 14.8694 10.0605 15.065C10.3142 15.2607 10.6584 15.3585 11.0931 15.3585ZM20.5402 13.3803H18.6489V15.228H17.2468V13.3803H15.3664V12.0542H17.2468V10.2065H18.6489V12.0542H20.5402V13.3803Z" fill="white"/>
<circle cx="12.5" cy="12.5" r="11.9565" stroke="white" stroke-width="1.08692"/>
</svg>
