<svg width="141" height="18" viewBox="0 0 141 18" fill="none" xmlns="http://www.w3.org/2000/svg">
<path d="M3.055 10.1077H3.29C3.8775 10.1077 4.559 10.1077 5.1465 10.1077C5.5225 10.1077 5.828 10.0385 6.11 9.80769C6.7915 9.3 6.7915 8.35384 6.11 7.91538C5.875 7.77692 5.6635 7.61538 5.4285 7.61538C4.606 7.54615 3.854 7.61538 3.055 7.54615V10.1077ZM3.055 14.5615H3.29C3.9715 14.5615 4.559 14.5615 5.217 14.5615C5.358 14.5615 5.5225 14.5615 5.6635 14.5615C6.5565 14.4231 7.144 13.6154 6.862 12.7385C6.721 12.1615 6.1805 11.8615 5.6635 11.7231C5.2875 11.6538 4.841 11.6538 4.465 11.6538C4.0185 11.6538 3.572 11.6538 3.055 11.6538V14.5615ZM0.0704989 5.86154C0.892999 5.86154 1.786 5.86154 2.6085 5.86154C3.7365 5.86154 4.841 5.86153 5.969 5.93077C6.862 5.93077 7.614 6.23077 8.131 6.94616C8.7185 7.75385 8.883 8.63077 8.5775 9.57692C8.4365 10.0154 8.131 10.3154 7.755 10.5231C7.614 10.5923 7.52 10.6615 7.379 10.7538C7.6845 10.8923 7.9665 11.0538 8.2015 11.2615C8.789 11.7692 9.0945 12.5077 9.0945 13.3154C9.0945 14.1923 8.789 14.9308 8.0605 15.5077C7.5435 15.9461 6.9325 16.1769 6.2745 16.2462C6.0395 16.2462 5.828 16.3154 5.593 16.3154C3.807 16.3154 2.021 16.3154 0.235 16.3154C0.1645 16.3154 0.094 16.3154 0 16.3154V14.6308H0.8225V7.61538H0L0.0704989 5.86154ZM135.548 13.1077C135.548 12.8769 135.548 12.6692 135.548 12.4385C135.477 11.9308 135.172 11.5615 134.725 11.3308C133.903 10.8231 132.939 11.1 132.563 12C132.328 12.6692 132.328 13.2462 132.493 13.8923C132.634 14.4 132.869 14.7692 133.386 15C134.349 15.3692 135.548 14.5615 135.548 13.5461V13.1077ZM133.621 18C133.315 17.9308 132.939 17.8615 132.728 17.7C132.141 17.4 131.764 16.9615 131.529 16.3154C131.835 16.3154 132.117 16.3154 132.423 16.3154C132.493 16.3154 132.493 16.3846 132.563 16.3846C133.08 17.2615 134.138 17.4923 135.031 16.9615C135.407 16.7308 135.548 16.4538 135.618 16.0154C135.618 15.5769 135.618 15.1385 135.618 14.7C135.548 14.7692 135.477 14.9308 135.383 15C134.49 16.0154 132.845 15.8077 132.093 14.7692C131.576 14.1 131.506 13.3846 131.576 12.5769C131.576 12.0692 131.811 11.6308 132.023 11.1923C132.775 10.0846 134.561 9.87692 135.383 11.0538C135.454 11.1231 135.524 11.1923 135.618 11.3538V10.4077H137.263V11.0769H136.441V11.3077C136.441 12.8538 136.441 14.3769 136.441 15.9231C136.441 17.0308 135.759 17.6769 134.725 17.9077C134.585 17.9077 134.491 17.9769 134.35 17.9769H133.598V18H133.621ZM140.553 2.63077C140.553 1.45384 139.59 0.507692 138.391 0.507692C137.193 0.507692 136.229 1.45384 136.159 2.63077C136.159 3.80769 137.122 4.75384 138.321 4.82308C139.59 4.75384 140.553 3.80769 140.553 2.63077ZM141 2.93077C140.93 3.36923 140.765 3.73846 140.483 4.10769C139.801 4.98461 138.697 5.35384 137.639 5.05384C136.605 4.75384 135.854 3.87692 135.783 2.86154C135.642 1.47692 136.605 0.230769 137.945 0C137.945 0 138.015 0 138.086 0H138.673H138.744C139.496 0.138462 140.013 0.43846 140.46 1.01538C140.765 1.38461 140.835 1.75385 140.976 2.19231V2.93077H141ZM89.065 10.8231C88.924 11.5615 88.689 12.2769 88.548 13.0154C88.313 14.0308 88.031 15.0692 87.796 16.0846C87.796 16.1538 87.796 16.2231 87.655 16.2231C86.9735 16.2231 86.3155 16.2231 85.634 16.2231C85.5635 15.9923 85.493 15.7846 85.493 15.5538C84.976 13.7308 84.459 11.8846 84.0125 10.0615C84.0125 9.92308 83.942 9.83077 83.7775 9.83077C83.6365 9.83077 83.472 9.83077 83.2605 9.83077V8.28461H86.4565V9.83077H85.634C86.01 11.3769 86.386 12.9 86.762 14.4462C86.8325 14.3077 86.8325 14.0769 86.903 13.9385C87.279 12.1154 87.655 10.2692 88.1015 8.51538C88.1015 8.44615 88.172 8.37692 88.2425 8.37692C88.83 8.37692 89.441 8.37692 90.0285 8.37692C90.1695 8.37692 90.1695 8.44615 90.1695 8.51538C90.616 10.4077 90.992 12.3231 91.4385 14.2154C91.4385 14.2846 91.4385 14.2846 91.509 14.3538L92.543 9.80769H91.7205V8.26154H94.9165V9.80769C94.7755 9.80769 94.5405 9.80769 94.3995 9.80769C94.329 9.80769 94.2585 9.80769 94.2585 9.94616C93.7415 11.9308 93.1305 13.9615 92.6135 15.9462C92.543 16.0846 92.543 16.1769 92.3785 16.1769C91.791 16.1769 91.18 16.1769 90.5925 16.1769C90.4515 16.1769 90.4515 16.1769 90.3575 16.0385C89.911 14.3538 89.535 12.6692 89.0885 10.9154C89.1355 10.8923 89.1355 10.8923 89.065 10.8231ZM78.3255 7.8923C77.8085 9.43846 77.362 10.8923 76.9155 12.4385H79.665C79.2185 10.8923 78.772 9.36923 78.3255 7.8923ZM83.3075 14.5615V16.2462H80.934C80.793 15.7385 80.6285 15.2308 80.4875 14.7C80.417 14.4692 80.3465 14.2615 80.2525 14.0308C80.2525 13.9615 80.182 13.9615 80.1115 13.9615C78.913 13.9615 77.738 13.9615 76.61 13.9615C76.469 13.9615 76.469 14.0308 76.469 14.1C76.234 14.7692 76.093 15.4154 75.8815 16.0846C75.8815 16.1538 75.8815 16.1538 75.811 16.2231H73.3435V14.5385C73.5785 14.5385 73.79 14.5385 74.025 14.5385C74.166 14.5385 74.166 14.5385 74.26 14.4C75.153 11.5385 76.1165 8.76923 77.0095 5.90769C77.0095 5.76923 77.08 5.76923 77.2445 5.76923C77.9965 5.76923 78.725 5.76923 79.5475 5.76923C79.6885 5.76923 79.6885 5.83846 79.7825 5.90769C80.746 8.7 81.639 11.5385 82.626 14.3308C82.6965 14.4692 82.6965 14.4692 82.861 14.4692C82.861 14.5615 83.096 14.5615 83.3075 14.5615ZM112.541 11.2615L115.972 11.3308C115.972 10.4538 115.291 9.78461 114.398 9.78461C113.505 9.73846 112.612 10.4538 112.541 11.2615ZM118.276 12.7385H112.541C112.612 13.4769 112.847 14.1231 113.435 14.5615C113.951 14.9308 114.563 15 115.221 14.7923C115.667 14.6538 115.902 14.3538 116.114 13.9154C116.184 13.8462 116.184 13.7769 116.349 13.7769C116.936 13.7769 117.618 13.7769 118.205 13.7077C118.205 13.8462 118.135 13.9385 118.135 14.0077C117.688 15.3923 116.725 16.2 115.221 16.4308C114.328 16.5692 113.505 16.5 112.683 16.0615C111.648 15.5538 110.967 14.6769 110.661 13.5C110.356 12.1154 110.521 10.8 111.413 9.62307C112.894 7.63846 116.043 7.73077 117.523 9.69231C117.97 10.4538 118.346 11.8615 118.276 12.7385ZM12.5255 11.2615L15.9565 11.3308C16.027 10.5231 15.369 9.87692 14.476 9.78461C13.5595 9.66923 12.596 10.3846 12.5255 11.2615ZM18.1185 12.7385H12.3845C12.3845 12.8769 12.3845 13.0385 12.455 13.1769C12.5255 13.4769 12.596 13.7538 12.7605 14.0538C13.1365 14.7231 13.7945 14.9308 14.5465 14.8615C15.228 14.7923 15.6745 14.4231 15.886 13.8462C15.886 13.7769 15.9565 13.7769 16.027 13.7769C16.6145 13.7769 17.296 13.7077 17.8835 13.7077H17.954C17.8835 14.1462 17.719 14.5154 17.5075 14.8846C16.92 15.7615 16.0975 16.2692 15.04 16.4308C14.147 16.5692 13.254 16.5 12.4315 16.0615C11.3035 15.4846 10.716 14.5154 10.4105 13.3615C10.1755 12.1846 10.2695 11.0308 10.9275 9.9923C12.267 7.73077 15.698 7.5 17.2725 9.69231C17.86 10.5692 18.1655 11.5846 18.1655 12.6923C18.189 12.6692 18.189 12.6692 18.1185 12.7385ZM100.674 12.5077C100.157 12.5769 99.64 12.5769 99.1935 12.7385C98.8175 12.8077 98.512 12.8769 98.1595 13.0385C97.713 13.1769 97.572 13.5462 97.572 13.9846C97.572 14.4231 97.8775 14.7231 98.324 14.8615C99.0055 15.0923 99.8045 14.8615 100.345 14.3538C100.768 13.8231 100.768 13.1769 100.674 12.5077ZM100.674 11.1923C100.674 10.9615 100.604 10.6846 100.604 10.4538C100.533 10.0154 100.228 9.71538 99.781 9.64615C99.4755 9.57692 99.0995 9.57692 98.8175 9.64615C98.3005 9.78461 97.9245 10.0846 97.9245 10.6615C97.9245 10.7308 97.9245 10.8 97.9245 10.8923L95.9975 10.8231C95.9975 10.4538 96.068 10.0846 96.303 9.80769C96.6085 9.23077 97.1255 8.79231 97.713 8.56154C98.9115 8.12308 100.087 8.12308 101.285 8.63077C102.248 9 102.695 9.80769 102.766 10.7538C102.836 11.6308 102.766 12.5077 102.766 13.4538C102.766 13.8923 102.766 14.3308 102.766 14.8385H103.447V16.3846H100.909V15.5077C100.839 15.5769 100.674 15.7385 100.604 15.8077C99.405 16.8231 97.4075 16.7538 96.2795 15.7385C95.316 14.7923 95.316 12.8769 96.7965 12.1615C97.478 11.7923 98.136 11.6538 98.888 11.5846C99.4755 11.5154 100.087 11.4461 100.744 11.3538C100.604 11.1923 100.604 11.1923 100.674 11.1923ZM40.7725 9.73846C41.078 9.43846 41.2895 9.16154 41.595 8.86154C42.2765 8.28461 43.005 8.05385 43.898 8.19231C44.5795 8.33077 44.932 8.7 45.167 9.3C45.2375 9.43846 45.2375 9.6 45.308 9.73846C45.3785 9.66923 45.449 9.50769 45.543 9.43846C45.919 8.86154 46.436 8.33077 47.188 8.19231C47.8695 8.05385 48.5275 8.05384 49.0445 8.4923C49.491 8.86154 49.632 9.36923 49.726 9.87692C49.726 10.0154 49.726 10.2462 49.726 10.3846C49.726 11.9308 49.726 13.4538 49.726 14.9308V15.1615H50.854V16.1077H48.6215V15.8769C48.6215 14.0538 48.6215 12.3 48.6215 10.4538C48.6215 10.2231 48.6215 10.0846 48.551 9.87692C48.41 9.13846 47.8695 8.76923 47.0705 9C46.483 9.13846 46.107 9.50769 45.731 10.0154C45.4255 10.4538 45.2845 10.9615 45.2845 11.4692C45.2845 12.6461 45.2845 13.8 45.2845 14.9769V15.2077H46.483V16.1538H44.039V15.9231C44.039 14.1 44.039 12.2538 44.039 10.4308C44.039 10.2 44.039 9.9923 43.9685 9.76154C43.8275 9.32307 43.522 9.09231 43.0755 9.02308C42.394 8.95385 41.9475 9.25385 41.501 9.69231C40.984 10.2692 40.6785 10.8692 40.749 11.6769C40.749 12.7846 40.749 13.8692 40.749 15.0461V15.2769H41.9475V16.2231H38.54V15.2769H39.668V9.20769H38.54V8.26154H40.9135C40.702 8.76923 40.702 9.23077 40.7725 9.73846ZM27.119 12H24.6515C24.6515 11.7 24.6515 11.3308 24.722 11.0538H28.4585V16.1769H27.2835V14.5615C27.213 14.6308 27.213 14.6308 27.213 14.7C26.461 15.8077 25.4975 16.3846 24.158 16.4538C23.124 16.4538 22.3015 16.0846 21.479 15.4385C20.586 14.6308 20.069 13.6154 19.834 12.5077C19.5285 11.0538 19.693 9.57692 20.2805 8.19231C20.727 7.24615 21.4085 6.43846 22.372 6C23.9465 5.26154 25.8735 5.56154 27.0015 7.17692C27.0015 7.24616 27.072 7.24615 27.1425 7.31538V5.7H28.2705V9H27.0485C26.978 8.56154 26.743 8.19231 26.5315 7.82308C25.944 7.01538 25.1215 6.57692 24.158 6.57692C23.265 6.57692 22.513 7.01538 21.996 7.68461C21.479 8.26154 21.244 9 21.103 9.80769C20.962 10.9154 21.0325 11.9308 21.4085 12.9462C21.6435 13.5231 21.9255 14.0538 22.4425 14.4923C23.3355 15.3 24.4635 15.4385 25.4975 14.9308C26.5315 14.4923 27.213 13.2462 27.119 12ZM58.7265 12.2308C58.7265 12.0923 58.7265 11.9308 58.7265 11.7231C58.656 11.1462 58.4915 10.5462 58.2095 10.0385C57.622 9.23077 56.635 8.93077 55.742 9.36923C54.9195 9.73846 54.097 10.7538 54.2615 11.8615C54.332 12.4385 54.2615 12.9692 54.4025 13.5461C54.5435 14.4923 55.5305 15.3 56.494 15.4385C57.3165 15.5077 58.0685 15.0692 58.421 14.3308C58.5855 13.6154 58.7265 12.9462 58.7265 12.2308ZM52.9925 6.36923H51.9585V5.42308H54.191V9.96923C54.2615 9.9 54.2615 9.83077 54.332 9.83077C54.567 9.46154 54.9195 9.0923 55.2955 8.81538C56.3295 8.07692 57.5985 8.07692 58.656 8.95384C59.408 9.53077 59.784 10.3385 59.9955 11.2154C60.301 12.5308 60.1365 13.7769 59.408 14.9538C59.032 15.5308 58.515 16.0615 57.8335 16.3385C56.7995 16.7077 55.601 16.4077 54.849 15.6C54.708 15.3692 54.473 15.1615 54.2615 14.9308V16.3154H51.9585V15.3692H53.0865V6.36923H52.9925ZM35.109 12.2308C35.0385 12.2308 34.968 12.2308 34.968 12.2308C34.2865 12.3 33.6285 12.4615 32.8765 12.6C32.43 12.6692 31.9835 12.8308 31.6075 13.1077C31.3725 13.2462 31.161 13.4769 31.161 13.8462C31.02 14.7231 31.678 15.6 32.6415 15.6692C33.6755 15.7385 34.8035 14.9308 35.015 13.9154C35.109 13.2462 35.015 12.7385 35.109 12.2308ZM36.143 15.3692H37.271C37.271 15.6692 37.3415 16.0385 37.3415 16.3154H35.0385V14.9308C34.968 15 34.968 15 34.968 15C34.3805 15.9462 33.4875 16.3846 32.3595 16.4538C31.396 16.5231 30.644 16.1538 30.127 15.3462C29.6805 14.6077 29.5395 13.8923 29.986 13.0846C30.221 12.5769 30.6675 12.3462 31.1845 12.1385C31.866 11.8385 32.5945 11.7 33.3465 11.5615C33.8635 11.4923 34.4745 11.4231 35.062 11.3308C35.062 10.9615 35.062 10.5231 34.9915 10.1538C34.8505 9.57692 34.404 9.27692 33.8635 9.13846C33.417 9 32.9 9.06923 32.4535 9.13846C31.866 9.27692 31.49 9.71538 31.3255 10.2462C31.255 10.3846 31.255 10.4769 31.02 10.4769C30.644 10.4769 30.3385 10.4769 29.986 10.4769C30.221 9.53077 30.6675 8.86154 31.5605 8.42308C32.5945 7.98462 33.652 7.98462 34.686 8.42308C35.5085 8.79231 35.955 9.43846 36.096 10.3154C36.096 10.5461 36.096 10.6846 36.096 10.8923C36.096 12.2769 36.096 13.5923 36.096 15L36.143 15.3692ZM66.317 11.6308H70.7115C70.7115 10.9615 70.4765 10.4538 70.1945 9.94616C69.748 9.36923 69.231 9.06923 68.479 9.20769C67.069 9.36923 66.411 10.3846 66.317 11.6308ZM72.0745 12.5077H66.27C66.3405 12.8077 66.3405 13.0154 66.411 13.2462C66.4815 13.6846 66.646 14.1231 66.928 14.5615C67.5155 15.4385 68.855 15.7385 69.6775 15.2308C70.0535 15 70.265 14.6538 70.5 14.2846C70.5705 14.1462 70.641 14.0538 70.8055 14.0538C71.1815 14.0538 71.5575 14.0538 71.9335 14.0538C71.863 14.1923 71.863 14.3538 71.7925 14.4923C71.2755 15.6692 69.8655 16.4769 68.5025 16.3154C66.646 16.1769 65.377 14.9308 65.0715 13.0846C64.8365 11.9077 65.001 10.7538 65.659 9.71539C66.176 8.83846 66.9985 8.26154 68.0325 8.1C69.513 7.86923 70.876 8.60769 71.534 9.92308C71.91 10.6615 72.051 11.4692 72.051 12.3462C72.0745 12.5077 72.0745 12.5077 72.0745 12.5077ZM107.16 14.7H108.124V16.2462H104.387V14.7H105.21V9.87692H104.387V8.33077H107.136V9.50769C107.207 9.43846 107.277 9.27692 107.277 9.20769C107.583 8.76923 107.959 8.33077 108.547 8.26154C108.993 8.12307 109.51 8.1923 109.956 8.26154L110.027 8.33077C110.027 8.90769 110.027 9.50769 110.027 10.0846C109.792 10.0846 109.581 10.0154 109.346 10.0154C108.758 9.94615 108.147 10.0846 107.701 10.4538C107.325 10.7538 107.184 11.1923 107.113 11.6308C107.113 12.5769 107.113 13.5231 107.113 14.5615C107.09 14.6308 107.09 14.6308 107.16 14.7ZM61.7815 6.3H60.6535V5.42308H62.9565V15.3H63.9905V16.2462H60.6535V15.3H61.7815V6.3ZM122.082 13.3846C122.082 13.8231 122.153 14.2615 122.317 14.7C122.623 15.2769 123.069 15.6462 123.728 15.6462C124.385 15.6462 124.926 15.3462 125.208 14.7692C125.349 14.4 125.443 14.1 125.513 13.6615C125.584 13.0846 125.513 12.4846 125.208 11.9769C124.902 11.4 124.385 11.1 123.728 11.1C123.069 11.1 122.693 11.4692 122.388 11.9769C122.082 12.4385 122.082 12.8769 122.082 13.3846ZM126.383 13.2462C126.383 13.9846 126.242 14.6308 125.866 15.1385C125.278 16.0154 124.456 16.3154 123.398 16.2462C122.435 16.1769 121.754 15.5769 121.378 14.7C121.002 13.7538 120.931 12.7154 121.378 11.7692C121.824 10.8231 122.646 10.3154 123.751 10.3154C124.855 10.3154 125.607 10.8231 126.054 11.7692C126.312 12.3 126.383 12.8077 126.383 13.2462ZM129.673 16.1769H127.064V15.5077H127.887V11.1923H127.064V10.5231H128.78V11.7C129.085 11.1923 129.461 10.6846 130.049 10.4538C130.354 10.3846 130.872 10.3846 131.177 10.4538V11.2615C131.036 11.2615 130.871 11.2615 130.73 11.1923C129.697 11.1231 128.803 11.8615 128.803 12.8769C128.803 13.6846 128.803 14.5615 128.803 15.3692V15.4385H129.767L129.673 16.1769ZM119.239 15.2308H120.202V16.1769H119.239V15.2308ZM137.71 1.45384V2.33077C138.016 2.33077 138.298 2.33077 138.603 2.33077C138.673 2.33077 138.744 2.33077 138.838 2.26154C139.073 2.1923 139.143 2.03077 139.073 1.75384C139.073 1.52307 138.932 1.38462 138.697 1.38462C138.392 1.45385 138.086 1.45384 137.71 1.45384ZM138.979 2.56154C139.284 2.63077 139.355 2.86154 139.355 3.06923C139.355 3.27692 139.425 3.57692 139.425 3.80769C138.979 3.80769 139.049 3.87692 138.979 3.43846C138.979 3.3 138.979 3.13846 138.908 3C138.838 2.76923 138.768 2.63077 138.462 2.63077C138.157 2.63077 137.874 2.63077 137.569 2.63077V3.73846H137.193V1.10769C137.264 1.10769 137.334 1.10769 137.498 1.10769C137.874 1.10769 138.25 1.10769 138.626 1.10769C139.002 1.10769 139.214 1.33846 139.308 1.61538C139.52 2.05385 139.355 2.33077 138.979 2.56154Z" fill="#4F4F4F"/>
</svg>
