<svg width="125" height="126" viewBox="0 0 125 126" fill="none" xmlns="http://www.w3.org/2000/svg">
<mask id="mask0_46_361" style="mask-type:luminance" maskUnits="userSpaceOnUse" x="7" y="8" width="111" height="109">
<path d="M117.719 8.66251H7.03125V116.96H117.719V8.66251Z" fill="white"/>
</mask>
<g mask="url(#mask0_46_361)">
<path d="M32.7195 97.8075C33.407 98.8155 34.4695 99.4455 35.782 99.4455H77.2194C78.9695 99.4455 80.4695 98.1855 80.8445 96.4845L92.3445 41.2965C92.532 40.3515 92.3445 39.4695 91.9695 38.7135" fill="#F4F4F2"/>
<path d="M77.2198 100.39H35.7823C34.2198 100.39 32.7823 99.6345 31.9073 98.3115C31.5948 97.8705 31.7198 97.3035 32.1573 96.9885C32.5948 96.6735 33.1573 96.7995 33.4698 97.2405C33.9698 97.9965 34.8448 98.5005 35.7823 98.5005H77.2198C78.532 98.5005 79.657 97.5555 79.907 96.2955L91.407 41.0444C91.532 40.3514 91.4695 39.7214 91.0945 39.0914C90.8445 38.6504 90.9695 38.0834 91.4695 37.8314C91.907 37.5794 92.4695 37.7054 92.7195 38.2094C93.282 39.2174 93.4695 40.3514 93.2195 41.4854L81.7195 96.6735C81.282 98.8155 79.407 100.39 77.2198 100.39Z" fill="white"/>
<path d="M71.2197 92.8935H36.3447C33.8447 92.8935 32.2822 90.8145 32.8447 88.2945L43.6572 39.2805C44.2197 36.7605 46.7197 34.6815 49.1572 34.6815H83.9695C86.4695 34.6815 88.032 36.7605 87.4695 39.2805L76.6572 88.2945C76.1572 90.8775 73.6572 92.8935 71.2197 92.8935Z" fill="#F3A712"/>
<path d="M71.2199 95.0985H36.3449C34.5324 95.0985 32.8449 94.3425 31.7824 92.9565C30.6574 91.5705 30.2824 89.6805 30.7199 87.7905L41.5324 38.7765C42.3449 35.2485 45.6574 32.4765 49.1574 32.4765H83.9695C85.782 32.4765 87.4695 33.2325 88.532 34.6185C89.657 36.0045 90.0328 37.8945 89.5953 39.7845L78.782 88.7985C78.0324 92.3265 74.7199 95.0985 71.2199 95.0985ZM49.2199 36.8865C47.7824 36.8865 46.1574 38.2095 45.8449 39.7845L35.0324 88.7985C34.9074 89.3655 34.9699 89.9325 35.2199 90.2475C35.5324 90.6255 35.9699 90.6885 36.3449 90.6885H71.1574C72.5949 90.6885 74.2199 89.3655 74.5324 87.7905L85.3453 38.7765C85.4695 38.2095 85.407 37.6425 85.157 37.3275C84.8445 36.9495 84.407 36.8865 84.032 36.8865H49.2199Z" fill="#F3A712"/>
<path d="M72.1572 91.3815H30.7822C29.4072 91.3815 28.0947 90.7515 27.1572 89.6805C26.2822 88.6095 25.9072 87.1605 26.2197 85.7745L37.7197 30.5865C38.1572 28.4445 40.0947 26.8695 42.2822 26.8695H83.7195C85.0945 26.8695 86.407 27.4995 87.3445 28.5705C88.2195 29.6415 88.5945 31.0905 88.282 32.4765L76.7822 87.6645C76.2822 89.8065 74.3447 91.3815 72.1572 91.3815ZM42.2822 28.6965C40.9697 28.6965 39.8447 29.6415 39.5947 30.9015L28.0947 86.0895C27.9072 86.9085 28.1572 87.7275 28.6572 88.4205C29.1572 89.1135 29.9697 89.4285 30.7822 89.4285H72.2197C73.5322 89.4285 74.6572 88.4835 74.9072 87.2235L86.407 32.0355C86.5945 31.2165 86.3445 30.3975 85.8445 29.7045C85.3445 29.0115 84.532 28.6965 83.7195 28.6965H42.2822Z" fill="white"/>
<path d="M42.2199 76.9545L65.7199 77.0175C66.7199 77.0175 67.5949 76.2615 67.7824 75.1905L74.9699 40.9815C75.2824 39.5325 74.2824 38.2095 72.9699 38.2095L49.4699 38.1465C48.4699 38.1465 47.5949 38.9025 47.4074 39.9735L40.2199 74.1825C39.9074 75.5685 40.8449 76.9545 42.2199 76.9545Z" fill="white"/>
<path d="M65.7194 77.9625L42.1569 77.8995C41.2819 77.8995 40.4694 77.5215 39.9069 76.7655C39.2819 76.0095 39.0319 74.9385 39.2819 73.9305L46.4694 39.7215C46.7819 38.2095 48.0319 37.1385 49.4694 37.1385L72.9694 37.2015C73.8444 37.2015 74.6569 37.5795 75.2194 38.3355C75.8444 39.0915 76.0944 40.1625 75.8444 41.1705L68.6569 75.3795C68.4069 76.8285 67.1569 77.9625 65.7194 77.9625ZM42.2194 76.0095L65.7194 76.0725C66.2819 76.0725 66.7819 75.6315 66.9069 75.0015L74.0944 40.7925C74.2194 40.3515 74.0944 39.9105 73.8444 39.5325C73.7194 39.4065 73.4694 39.0915 73.0319 39.0915L49.5319 39.0285C48.9694 39.0285 48.4694 39.4695 48.3444 40.0995L41.1569 74.3085C41.0319 74.7495 41.1569 75.1905 41.4069 75.5685C41.5319 75.6945 41.7819 76.0095 42.2194 76.0095Z" fill="white"/>
<path d="M91.9063 39.5325C91.5938 39.5325 91.2813 39.3435 91.0938 39.0285L86.0313 29.9565C85.7813 29.5155 85.9688 28.9485 86.4063 28.6965C86.8438 28.4445 87.4063 28.5705 87.6563 29.0745L92.7188 38.1465C92.9688 38.5875 92.7813 39.1545 92.3438 39.4065C92.2188 39.5325 92.0313 39.5325 91.9063 39.5325Z" fill="white"/>
<path d="M89.7187 54.5894C89.4062 54.5894 89.0938 54.4004 88.9063 54.0854L83.9063 45.1394C83.6563 44.6984 83.7812 44.1314 84.2812 43.8794C84.7187 43.6274 85.2813 43.7534 85.5313 44.2574L90.5937 53.2034C90.8437 53.6444 90.7188 54.2114 90.2188 54.4634C90.0938 54.5264 89.9062 54.5894 89.7187 54.5894Z" fill="white"/>
<path d="M32.7188 98.7525C32.4063 98.7525 32.0938 98.5635 31.9063 98.2485L26.8438 89.1765C26.5938 88.7355 26.7813 88.1685 27.2188 87.9165C27.6563 87.6645 28.2188 87.8535 28.4688 88.2945L33.5313 97.3665C33.7813 97.8075 33.5938 98.3745 33.1563 98.6265C33.0313 98.6895 32.9063 98.7525 32.7188 98.7525Z" fill="white"/>
<path d="M84.7187 45.6434H35.7184C35.2184 45.6434 34.7809 45.2024 34.7809 44.6984C34.7809 44.1944 35.2184 43.7534 35.7184 43.7534H84.7187C85.2187 43.7534 85.6562 44.1944 85.6562 44.6984C85.6562 45.2024 85.2187 45.6434 84.7187 45.6434Z" fill="white"/>
<path d="M72.1572 45.6434H47.9697C47.4697 45.6434 47.0322 45.2024 47.0322 44.6984C47.0322 44.1944 47.4697 43.7534 47.9697 43.7534H72.2197C72.7197 43.7534 73.1572 44.1944 73.1572 44.6984C73.1572 45.2024 72.7197 45.6434 72.1572 45.6434Z" fill="white"/>
<path d="M60.4691 69.3945H48.7816C48.4691 69.3945 48.1566 69.2055 47.9691 68.9535C47.7816 68.7015 47.7816 68.3235 47.9066 68.0085L53.9691 55.7235C52.9691 55.0305 52.2816 53.9595 52.1566 52.8255C51.9066 50.3685 54.2191 48.1005 57.3441 47.7855C60.4691 47.4705 63.1566 49.2345 63.4066 51.6915C63.5941 53.3925 62.5941 55.0305 60.7816 55.9755L61.4066 68.4495C61.4066 68.7015 61.3441 68.9535 61.1566 69.1425C60.9691 69.3315 60.7191 69.3945 60.4691 69.3945ZM50.2816 67.5045H59.4691L58.9691 55.4715C58.9691 55.0935 59.1566 54.7155 59.5316 54.5265C60.8441 53.9595 61.7191 52.8885 61.5941 51.8805C61.4691 50.4945 59.5941 49.4235 57.5941 49.6755C55.5316 49.8645 53.9691 51.2505 54.0941 52.6995C54.1566 53.4555 54.7191 54.1485 55.6566 54.5265C55.9066 54.6525 56.0941 54.8415 56.1566 55.0935C56.2191 55.3455 56.2191 55.5975 56.0941 55.8495L50.2816 67.5045Z" fill="#FFD036"/>
<path d="M95.407 26.5545C95.032 26.5545 94.657 26.4285 94.3445 26.1135C93.7195 25.4835 93.7195 24.5385 94.282 23.9085L106.282 11.1825C106.907 10.5525 107.845 10.5525 108.47 11.1195C109.095 11.7495 109.095 12.6945 108.532 13.3245L96.532 26.0505C96.2195 26.4285 95.782 26.5545 95.407 26.5545Z" fill="#F3A712"/>
<path d="M116.156 95.5395C115.844 95.5395 115.531 95.4765 115.281 95.2245L97.9687 82.9395C97.2812 82.4355 97.0937 81.4275 97.5937 80.7345C98.0937 80.0415 99.0937 79.8525 99.7812 80.3565L117.094 92.6415C117.781 93.1455 117.969 94.1535 117.469 94.8465C117.156 95.2875 116.656 95.5395 116.156 95.5395Z" fill="#F3A712"/>
<path d="M16.4067 116.96C16.0942 116.96 15.7817 116.834 15.4692 116.645C14.7817 116.141 14.5942 115.133 15.0942 114.44L24.6567 101.021C25.1567 100.328 26.1567 100.139 26.8442 100.643C27.5317 101.147 27.7192 102.155 27.2192 102.848L17.6567 116.267C17.3442 116.708 16.9067 116.96 16.4067 116.96Z" fill="#F3A712"/>
<path d="M24.2197 26.5545C23.7822 26.5545 23.3447 26.3655 23.0322 26.0505L10.0322 11.5605C9.46969 10.9305 9.53219 9.9225 10.1572 9.3555C10.7822 8.7885 11.7822 8.8515 12.3447 9.4815L25.3447 23.9715C25.9072 24.6015 25.8447 25.6095 25.2197 26.1765C24.9697 26.4285 24.5947 26.5545 24.2197 26.5545Z" fill="#F3A712"/>
<path d="M46.1569 22.0185C45.4069 22.0185 44.7819 21.5145 44.6569 20.7585L42.5944 10.5525C42.4069 9.6705 42.9694 8.8515 43.8444 8.7255C44.6569 8.5365 45.5319 9.1035 45.6569 9.9855L47.6569 20.1285C47.8444 21.0105 47.2819 21.8295 46.4069 21.9555C46.3444 22.0185 46.2819 22.0185 46.1569 22.0185Z" fill="black"/>
<path d="M73.844 21.7035C73.5315 21.7035 73.1565 21.5775 72.9065 21.3885C72.219 20.8215 72.094 19.8765 72.6565 19.1835L77.469 13.0725C78.0315 12.3795 78.9688 12.2535 79.6563 12.8205C80.3438 13.3875 80.4688 14.3325 79.9063 15.0255L75.094 21.1365C74.7815 21.5145 74.344 21.7035 73.844 21.7035Z" fill="#F3A712"/>
<path d="M86.3437 115.195C85.7812 115.195 85.2187 114.88 84.9687 114.313L80.0937 104.674C79.7187 103.918 80.0312 102.973 80.7812 102.532C81.5312 102.154 82.4687 102.469 82.9062 103.225L87.7812 112.864C88.1562 113.62 87.8437 114.565 87.0937 115.006C86.8437 115.132 86.5937 115.195 86.3437 115.195Z" fill="#FFC930"/>
<path d="M101.407 55.7865C100.72 55.7865 100.157 55.3455 99.907 54.7155C99.657 53.8965 100.095 53.0145 100.907 52.6995L103.532 51.8175C104.345 51.5655 105.22 52.0065 105.532 52.8255C105.782 53.6445 105.345 54.5265 104.532 54.8415L101.907 55.7235C101.72 55.7865 101.532 55.7865 101.407 55.7865Z" fill="black"/>
<path d="M17.7191 52.3215C17.4691 52.3215 17.2191 52.2585 16.9691 52.1325L7.84414 46.8405C7.09412 46.3995 6.84412 45.4545 7.28162 44.6985C7.65662 43.9425 8.59414 43.6905 9.34414 44.1315L18.4691 49.3605C19.2191 49.8015 19.4691 50.7465 19.0316 51.5025C18.7816 52.0065 18.2191 52.3215 17.7191 52.3215Z" fill="#FFC930"/>
<path d="M12.719 81.1125C12.094 81.1125 11.469 80.7345 11.2815 80.1045C10.969 79.2855 11.4065 78.4035 12.219 78.0885L15.344 76.9545C16.1565 76.6395 17.0315 77.0805 17.344 77.8995C17.6565 78.7185 17.219 79.6005 16.4065 79.9155L13.2815 81.0495C13.094 81.1125 12.9065 81.1125 12.719 81.1125Z" fill="#F3A712"/>
<path d="M47.2814 116.96C47.2189 116.96 47.0939 116.96 47.0314 116.96C46.1564 116.834 45.5939 116.014 45.7189 115.132L47.2189 105.305C47.3439 104.423 48.1564 103.855 49.0314 103.981C49.9064 104.107 50.4689 104.927 50.3439 105.809L48.8439 115.636C48.7189 116.392 48.0939 116.96 47.2814 116.96Z" fill="black"/>
</g>
</svg>
