<svg width="125" height="125" viewBox="0 0 125 125" fill="none" xmlns="http://www.w3.org/2000/svg">
<path d="M75.3436 66.5H23.5311C20.3436 66.5 17.7811 63.9375 17.7811 60.75C17.7811 57.5625 20.3436 55 23.5311 55H75.3436C76.1561 55 76.8436 55.6875 76.8436 56.5V65C76.7811 65.8125 76.1561 66.5 75.3436 66.5Z" fill="white"/>
<path d="M100.906 70.875H23.4062C17.8437 70.875 13.2812 66.3125 13.2812 60.75C13.2812 55.1875 17.8437 50.625 23.4062 50.625H100.906C106.469 50.625 111.031 55.1875 111.031 60.75C111.031 66.3125 106.531 70.875 100.906 70.875ZM23.4062 52.5C18.8437 52.5 15.1562 56.1875 15.1562 60.75C15.1562 65.3125 18.8437 69 23.4062 69H100.906C105.469 69 109.156 65.3125 109.156 60.75C109.156 56.1875 105.469 52.5 100.906 52.5H23.4062Z" fill="white"/>
<path d="M87.0313 41.125H81.1562C80.6562 41.125 80.2188 40.6875 80.2188 40.1875C80.2188 39.6875 80.6562 39.25 81.1562 39.25H87.0313C87.5313 39.25 87.9687 39.6875 87.9687 40.1875C87.9687 40.6875 87.5313 41.125 87.0313 41.125Z" fill="#F3A712"/>
<path d="M84.0305 44.0625C83.5305 44.0625 83.093 43.625 83.093 43.125V37.25C83.093 36.75 83.5305 36.3125 84.0305 36.3125C84.5305 36.3125 84.968 36.75 84.968 37.25V43.125C84.968 43.6875 84.593 44.0625 84.0305 44.0625Z" fill="#F3A712"/>
<path d="M71.8432 78.9375H65.9682C65.4682 78.9375 65.0307 78.5 65.0307 78C65.0307 77.5 65.4682 77.0625 65.9682 77.0625H71.8432C72.3432 77.0625 72.7807 77.5 72.7807 78C72.7807 78.5 72.3432 78.9375 71.8432 78.9375Z" fill="#F3A712"/>
<path d="M68.9055 81.9375C68.4055 81.9375 67.968 81.5 67.968 81V75.125C67.968 74.625 68.4055 74.1875 68.9055 74.1875C69.4055 74.1875 69.843 74.625 69.843 75.125V81C69.843 81.5 69.4055 81.9375 68.9055 81.9375Z" fill="#F3A712"/>
<path d="M88.9687 61.6875H83.0937C82.5937 61.6875 82.1562 61.25 82.1562 60.75C82.1562 60.25 82.5937 59.8125 83.0937 59.8125H88.9687C89.4687 59.8125 89.9062 60.25 89.9062 60.75C89.9062 61.25 89.5312 61.6875 88.9687 61.6875Z" fill="#F3A712"/>
<path d="M86.0313 64.625C85.5313 64.625 85.0938 64.1875 85.0938 63.6875V57.8125C85.0938 57.3125 85.5313 56.875 86.0313 56.875C86.5313 56.875 86.9688 57.3125 86.9688 57.8125V63.6875C86.9688 64.25 86.5313 64.625 86.0313 64.625Z" fill="#F3A712"/>
<path d="M47.531 110.875L36.531 107.312C35.281 106.937 34.5935 105.562 34.9685 104.312L40.781 86.4375C41.156 85.1875 42.531 84.5 43.781 84.875L54.781 88.4375C56.031 88.8125 56.7185 90.1875 56.3435 91.4375L50.531 109.312C50.0935 110.562 48.781 111.25 47.531 110.875Z" fill="white"/>
<path d="M48.2812 111.938C47.9062 111.938 47.5937 111.875 47.2812 111.75L36.2812 108.187C35.4062 107.937 34.7187 107.312 34.3437 106.562C33.9687 105.75 33.8437 104.875 34.1562 104L39.9687 86.125C40.5312 84.375 42.4062 83.4375 44.1562 84L55.1562 87.5625C56.0312 87.8125 56.7187 88.4375 57.0937 89.1875C57.4687 90 57.5937 90.875 57.2812 91.75L51.4062 109.625C51.1562 110.5 50.5312 111.188 49.7812 111.563C49.2812 111.813 48.7812 111.938 48.2812 111.938ZM47.8437 109.938C48.2187 110.063 48.5937 110 48.9687 109.875C49.3437 109.688 49.5937 109.375 49.7187 109.063L55.5312 91.1875C55.6562 90.8125 55.5937 90.4375 55.4687 90.0625C55.2812 89.6875 54.9687 89.4375 54.6562 89.3125L43.6562 85.75C42.9062 85.5 42.0937 85.9375 41.8437 86.6875L36.0312 104.562C35.9062 104.937 35.9687 105.312 36.0937 105.688C36.2187 106.062 36.5937 106.313 36.9687 106.438L47.8437 109.938Z" fill="white"/>
<path d="M43.0314 106.313H31.4689C30.1564 106.313 29.0939 105.25 29.0939 103.937V85.1875C29.0939 83.875 30.1564 82.8125 31.4689 82.8125H43.0314C44.3439 82.8125 45.4064 83.875 45.4064 85.1875V103.937C45.4689 105.25 44.3439 106.313 43.0314 106.313Z" fill="#FFD036"/>
<path d="M43.0313 107.25H31.4687C29.6562 107.25 28.1562 105.75 28.1562 103.937V85.1875C28.1562 83.375 29.6562 81.875 31.4687 81.875H43.0313C44.8438 81.875 46.3438 83.375 46.3438 85.1875V103.937C46.4062 105.75 44.9062 107.25 43.0313 107.25ZM31.4687 83.6875C30.6562 83.6875 30.0312 84.3125 30.0312 85.125V103.875C30.0312 104.688 30.6562 105.312 31.4687 105.312H43.0313C43.8438 105.312 44.4687 104.688 44.4687 103.875V85.125C44.4687 84.3125 43.8438 83.6875 43.0313 83.6875H31.4687Z" fill="white"/>
<path d="M37.2809 91.1875C37.2809 92.625 34.7809 94.125 34.7809 94.125C34.2184 94.8125 35.2184 95.6875 36.2184 95.3125L37.2809 94.875V91.1875Z" fill="white"/>
<path d="M35.6562 96.375C34.9687 96.375 34.2812 96.0625 33.9062 95.5625C33.4687 94.9375 33.5312 94.1875 34.0312 93.625C34.0937 93.5625 34.1562 93.5 34.2812 93.4375C35.2812 92.8125 36.3437 91.8125 36.3437 91.25C36.3437 90.75 36.7812 90.3125 37.2812 90.3125C37.7812 90.3125 38.2187 90.75 38.2187 91.25V94.9375C38.2187 95.3125 37.9687 95.6875 37.5937 95.8125L36.5312 96.25C36.2187 96.3125 35.9687 96.375 35.6562 96.375ZM36.3437 94.1875C36.2812 94.25 36.2187 94.3125 36.1562 94.3125L36.3437 94.25V94.1875Z" fill="white"/>
<path d="M37.281 91.1875C37.281 92.625 39.781 94.125 39.781 94.125C40.3435 94.8125 39.3435 95.6875 38.3435 95.3125L37.281 94.875V91.1875Z" fill="white"/>
<path d="M38.8434 96.375C38.5934 96.375 38.2809 96.3125 38.0309 96.25L36.9684 95.8125C36.5934 95.6875 36.3434 95.3125 36.3434 94.9375V91.25C36.3434 90.75 36.7809 90.3125 37.2809 90.3125C37.7809 90.3125 38.2184 90.75 38.2184 91.25C38.2184 91.75 39.2809 92.8125 40.2809 93.4375C40.3434 93.5 40.4684 93.5625 40.5309 93.625C41.0309 94.1875 41.0309 95 40.6559 95.5625C40.2184 96.0625 39.5309 96.375 38.8434 96.375ZM38.2184 94.25L38.4059 94.3125C38.3434 94.25 38.2809 94.1875 38.2184 94.1875V94.25Z" fill="white"/>
<path d="M37.2809 98.375C36.7809 98.375 36.3434 97.9375 36.3434 97.4375V94.3125C36.3434 93.8125 36.7809 93.375 37.2809 93.375C37.7809 93.375 38.2184 93.8125 38.2184 94.3125V97.4375C38.2184 97.9375 37.7809 98.375 37.2809 98.375Z" fill="white"/>
<path d="M56.0312 38.1875C62.8657 38.1875 68.4062 32.647 68.4062 25.8125C68.4062 18.978 62.8657 13.4375 56.0312 13.4375C49.1966 13.4375 43.6562 18.978 43.6562 25.8125C43.6562 32.647 49.1966 38.1875 56.0312 38.1875Z" fill="#F3A712"/>
<path d="M56.031 39.0625C48.7185 39.0625 42.7185 33.125 42.7185 25.75C42.781 18.4375 48.7185 12.5 56.031 12.5C63.3435 12.5 69.3435 18.4375 69.3435 25.8125C69.3435 33.125 63.406 39.0625 56.031 39.0625ZM56.031 14.375C49.7185 14.375 44.5935 19.5 44.5935 25.8125C44.5935 32.125 49.7185 37.25 56.031 37.25C62.3435 37.25 67.4685 32.125 67.4685 25.8125C67.4685 19.5 62.3435 14.375 56.031 14.375Z" fill="white"/>
<path d="M56.1558 33.6875C55.3433 33.6875 54.5308 33.5625 53.7808 33.3125C51.1558 32.5 49.2183 30.3125 48.6558 27.625C48.5308 27.125 48.8433 26.625 49.3433 26.5C49.8433 26.375 50.3433 26.6875 50.4683 27.1875C50.9058 29.1875 52.4058 30.875 54.3433 31.5C55.8433 32 57.4058 31.875 58.7808 31.125C60.1558 30.4375 61.2183 29.1875 61.6558 27.75C61.8433 27.25 62.3433 27 62.8433 27.125C63.3433 27.3125 63.5933 27.8125 63.4683 28.3125C62.8433 30.25 61.4683 31.875 59.6558 32.8125C58.5308 33.4375 57.3433 33.6875 56.1558 33.6875Z" fill="white"/>
<path d="M62.7807 25.5C62.3432 25.5 61.9682 25.1875 61.8432 24.75C61.4057 22.75 59.9057 21.0625 57.9682 20.4375C54.9057 19.4375 51.6557 21.125 50.6557 24.1875C50.4682 24.6875 49.9682 24.9375 49.4682 24.8125C48.9682 24.625 48.7182 24.125 48.8432 23.625C50.1557 19.5625 54.4682 17.375 58.5307 18.6875C61.1557 19.5 63.0932 21.6875 63.6557 24.375C63.7807 24.875 63.4682 25.375 62.9057 25.5C62.9057 25.5 62.8432 25.5 62.7807 25.5Z" fill="white"/>
<path d="M62.7811 25.5C62.6561 25.5 62.5311 25.5 62.4061 25.4375C61.9061 25.25 61.7186 24.6875 61.9686 24.1875L62.9686 22.0625C63.1561 21.5625 63.7186 21.375 64.2186 21.625C64.7186 21.8125 64.9061 22.375 64.6561 22.875L63.5936 25C63.4686 25.3125 63.0936 25.5 62.7811 25.5Z" fill="white"/>
<path d="M62.7812 25.5C62.6562 25.5 62.5937 25.5 62.4687 25.4375L60.2187 24.6875C59.7187 24.5 59.4687 24 59.5937 23.5C59.7812 23 60.2812 22.75 60.7812 22.875L63.0312 23.625C63.5312 23.8125 63.7812 24.3125 63.6562 24.8125C63.5312 25.25 63.1562 25.5 62.7812 25.5Z" fill="white"/>
<path d="M51.7812 29.1875C51.6562 29.1875 51.5937 29.1875 51.4687 29.125L49.2812 28.3125C48.7812 28.125 48.5312 27.625 48.7187 27.125C48.9062 26.625 49.4062 26.375 49.9062 26.5625L52.0937 27.375C52.5937 27.5625 52.8437 28.0625 52.6562 28.5625C52.4687 28.9375 52.1562 29.1875 51.7812 29.1875Z" fill="white"/>
<path d="M48.4686 30.4375C48.3436 30.4375 48.1561 30.375 48.0311 30.3125C47.5936 30.0625 47.4061 29.5 47.5936 29.0625L48.6561 27C48.9061 26.5625 49.4686 26.375 49.9061 26.5625C50.3436 26.8125 50.5311 27.375 50.3436 27.8125L49.2811 29.875C49.1561 30.25 48.8436 30.4375 48.4686 30.4375Z" fill="white"/>
<path d="M78.6563 55H70.1561V66.4375H78.6563V55Z" fill="black"/>
<path d="M70.1562 55H61.6562V66.4375H70.1562V55Z" fill="#FFD036"/>
<path d="M61.6562 55H53.1562V66.4375H61.6562V55Z" fill="#F3A712"/>
<path d="M65.9061 58.125C65.5311 58.125 65.1561 57.875 65.0311 57.4375L60.1561 41.3125C60.0311 40.8125 60.2811 40.3125 60.7811 40.125C61.2811 40 61.7811 40.25 61.9686 40.75L66.8436 56.875C66.9686 57.375 66.7186 57.875 66.2186 58.0625C66.0936 58.125 66.0311 58.125 65.9061 58.125Z" fill="white"/>
<path d="M79.7805 85.5C79.343 85.5 78.968 85.1875 78.843 84.8125L73.5307 63.125C73.4057 62.625 73.7182 62.125 74.2182 62C74.7182 61.875 75.2182 62.1875 75.3432 62.6875L80.6555 84.375C80.7805 84.875 80.468 85.375 79.968 85.5C79.968 85.5 79.9055 85.5 79.7805 85.5Z" fill="white"/>
<mask id="mask0_46_311" style="mask-type:luminance" maskUnits="userSpaceOnUse" x="70" y="86" width="26" height="26">
<path d="M83.2812 111.125C90.1156 111.125 95.6563 105.584 95.6563 98.75C95.6563 91.9156 90.1156 86.375 83.2812 86.375C76.4466 86.375 70.9061 91.9156 70.9061 98.75C70.9061 105.584 76.4466 111.125 83.2812 111.125Z" fill="#3B058E"/>
</mask>
<g mask="url(#mask0_46_311)">
<path d="M84.0469 115.054C92.4088 115.054 99.1874 108.275 99.1874 99.9133C99.1874 91.5514 92.4088 84.7727 84.0469 84.7727C75.685 84.7727 68.9063 91.5514 68.9063 99.9133C68.9063 108.275 75.685 115.054 84.0469 115.054Z" fill="white"/>
<path d="M71.8548 87.9297L70.6863 89.3961L96.007 109.573L97.175 108.106L71.8548 87.9297Z" fill="black"/>
<path d="M98.0148 91.9562L67.8833 103.799L68.5691 105.544L98.7008 93.7016L98.0148 91.9562Z" fill="black"/>
<path d="M84.7836 82.593L79.9789 114.609L81.8328 114.887L86.6375 82.8719L84.7836 82.593Z" fill="black"/>
</g>
<path d="M83.2812 105.938C87.2508 105.938 90.4687 102.72 90.4687 98.75C90.4687 94.7805 87.2508 91.5625 83.2812 91.5625C79.3117 91.5625 76.0941 94.7805 76.0941 98.75C76.0941 102.72 79.3117 105.938 83.2812 105.938Z" fill="white"/>
<path d="M83.2813 106.875C81.5313 106.875 79.7188 106.312 78.2188 105.125C74.7189 102.312 74.1564 97.1875 76.9064 93.6875C78.2813 92 80.2188 90.9375 82.3438 90.6875C84.5313 90.4375 86.6563 91.0625 88.3438 92.4375C90.0313 93.8125 91.0938 95.75 91.3438 97.875C91.5938 100.062 90.9688 102.187 89.5938 103.875C88.0313 105.812 85.6563 106.875 83.2813 106.875ZM83.2813 92.4375C83.0313 92.4375 82.7813 92.4375 82.5938 92.5C80.9063 92.6875 79.4688 93.5 78.4063 94.8125C76.2814 97.5 76.7189 101.437 79.4063 103.625C82.0938 105.75 86.0313 105.312 88.2188 102.625C89.2813 101.312 89.7188 99.6875 89.5313 98C89.3438 96.3125 88.5313 94.875 87.2188 93.8125C86.0938 92.9375 84.7188 92.4375 83.2813 92.4375Z" fill="black"/>
<path d="M50.6564 81.4375C50.5314 81.4375 50.4064 81.4375 50.2814 81.375C49.7814 81.1875 49.5939 80.625 49.7814 80.1875L56.4689 63.375C56.6564 62.875 57.2189 62.6875 57.6564 62.875C58.1564 63.0625 58.3439 63.625 58.1564 64.0625L51.4689 80.875C51.4064 81.25 51.0314 81.4375 50.6564 81.4375Z" fill="white"/>
<path d="M76.0936 37.625C76.784 37.625 77.3436 37.0654 77.3436 36.375C77.3436 35.6847 76.784 35.125 76.0936 35.125C75.4032 35.125 74.8436 35.6847 74.8436 36.375C74.8436 37.0654 75.4032 37.625 76.0936 37.625Z" fill="#F3A712"/>
<path d="M91.4062 48.1875C92.0969 48.1875 92.6562 47.6278 92.6562 46.9375C92.6562 46.2471 92.0969 45.6875 91.4062 45.6875C90.7164 45.6875 90.1562 46.2471 90.1562 46.9375C90.1562 47.6278 90.7164 48.1875 91.4062 48.1875Z" fill="#F3A712"/>
<path d="M86.5312 76.875C87.2219 76.875 87.7812 76.3154 87.7812 75.625C87.7812 74.9347 87.2219 74.375 86.5312 74.375C85.8414 74.375 85.2812 74.9347 85.2812 75.625C85.2812 76.3154 85.8414 76.875 86.5312 76.875Z" fill="#F3A712"/>
<path d="M56.8439 78.8125C57.5342 78.8125 58.0939 78.2531 58.0939 77.5625C58.0939 76.8721 57.5342 76.3125 56.8439 76.3125C56.1535 76.3125 55.5939 76.8721 55.5939 77.5625C55.5939 78.2531 56.1535 78.8125 56.8439 78.8125Z" fill="#F3A712"/>
<path d="M93.6555 82.25C94.3461 82.25 94.9055 81.6906 94.9055 81C94.9055 80.3094 94.3461 79.75 93.6555 79.75C92.9656 79.75 92.4055 80.3094 92.4055 81C92.4055 81.6906 92.9656 82.25 93.6555 82.25Z" fill="#F3A712"/>
<path d="M73.5934 46.9375C74.2838 46.9375 74.8434 46.3779 74.8434 45.6875C74.8434 44.9971 74.2838 44.4375 73.5934 44.4375C72.9031 44.4375 72.3434 44.9971 72.3434 45.6875C72.3434 46.3779 72.9031 46.9375 73.5934 46.9375Z" fill="#F3A712"/>
</svg>
