<svg width="52" height="45" viewBox="0 0 52 45" fill="none" xmlns="http://www.w3.org/2000/svg">
<g clip-path="url(#clip0_12_454)">
<path d="M11.718 0.0874023C11.718 0.0874023 2.91675 0.087403 2.91675 8.88864V44.3386H27.3397C27.3397 44.3386 48.7199 44.3386 48.7199 22.9584V0.0874023H11.718Z" fill="#052460"/>
<path d="M28.9936 11.8911V9.13435C28.9936 9.13435 28.9936 6.86768 26.7268 6.86768H13.5352C13.5352 6.86768 11.2685 6.86768 11.2685 9.13435V35.3747C11.2685 35.3747 11.2685 37.6414 13.5352 37.6414H26.7065C26.7065 37.6414 28.9731 37.6414 28.9731 35.3747V29.1464H27.7274V33.108H12.6776V9.6857H27.7479V11.8911H28.9936ZM18.6608 35.2725C18.6608 34.5171 19.2938 33.9044 20.0902 33.9044C20.8866 33.9044 21.5197 34.5171 21.5197 35.2725C21.5197 36.0281 20.8866 36.6407 20.0902 36.6407C19.2938 36.6407 18.6608 36.0281 18.6608 35.2725ZM22.6836 8.44005H18.1502V8.13374H22.6836V8.44005Z" fill="white"/>
<path d="M17.9667 13.9741H19.7842C21.1319 13.9741 21.7445 14.5255 21.7445 15.6894V15.8119C21.7445 16.9759 21.1523 17.5681 19.825 17.5681H19.2329V19.508H17.9872V13.9741H17.9667ZM19.2124 16.445H19.8045C20.3151 16.445 20.4784 16.2817 20.4784 15.7916V15.7303C20.4784 15.2198 20.2946 15.0768 19.7842 15.0768H19.2124V16.445Z" fill="#7AC8C1"/>
<path d="M24.6036 18.221H23.2149L22.9086 19.5075H21.5609L23.1741 13.9531H24.6649L26.2781 19.5075H24.8691L24.6036 18.221ZM23.4804 17.1182H24.3586L23.9297 15.2396L23.4804 17.1182Z" fill="#7AC8C1"/>
<path d="M27.1765 13.9735L28.0751 16.1177L28.9735 13.9735H30.3417L28.6672 17.2204V19.5075H27.4216V17.1999L25.7675 13.9531H27.1765V13.9735Z" fill="#7AC8C1"/>
<path d="M35.6712 17.8738C35.6712 19.1195 35.0586 19.5075 33.6904 19.5075H31.7709V13.9531H33.4658C34.7931 13.9531 35.3854 14.3002 35.3854 15.4437V15.505C35.3854 15.9747 35.2219 16.3218 34.9769 16.5261C35.3445 16.7098 35.6712 17.1387 35.6712 17.7921V17.8738ZM32.9961 14.9741V16.1993H33.5474C33.9967 16.1993 34.1602 16.0564 34.1602 15.5867V15.5459C34.1602 15.0761 33.9559 14.9536 33.5066 14.9536H32.9961V14.9741ZM34.3848 17.8125C34.3848 17.3429 34.1805 17.2204 33.7312 17.2204H32.9961V18.4864H33.7722C34.2418 18.4864 34.4052 18.3435 34.4052 17.8738V17.8125H34.3848Z" fill="#7AC8C1"/>
<path d="M37.1416 13.9735L38.0402 16.1177L38.9386 13.9735H40.3068L38.6323 17.2204V19.5075H37.3662V17.1999L35.7121 13.9531H37.1416V13.9735Z" fill="#7AC8C1"/>
<path d="M19.0895 21.4272L19.9676 23.8573L20.8457 21.4272H22.1117V26.512H21.009V23.4488L20.3964 25.1233H19.4775L18.8649 23.4488V26.512H17.7622V21.4272H19.0895Z" fill="white"/>
<path d="M26.6249 23.183V24.7759C26.6249 25.9602 26.0123 26.6137 24.7461 26.6137C23.5005 26.6137 22.8674 25.9807 22.8674 24.7759V23.183C22.8674 21.9783 23.4801 21.3452 24.7461 21.3452C26.0123 21.3452 26.6249 21.9783 26.6249 23.183ZM24.1131 24.8167C24.1131 25.3273 24.3173 25.5518 24.7666 25.5518C25.2157 25.5518 25.42 25.3273 25.42 24.8167V23.1218C25.42 22.6114 25.2157 22.3866 24.7666 22.3866C24.3173 22.3866 24.1131 22.6114 24.1131 23.1218V24.8167Z" fill="white"/>
<path d="M30.9745 25.0213C30.9745 26.1648 30.4232 26.512 29.157 26.512H27.4009V21.4272H28.9529C30.1781 21.4272 30.709 21.754 30.7295 22.7954V22.8567C30.7295 23.2855 30.5865 23.6123 30.3414 23.7961C30.6682 23.9594 30.9745 24.3474 30.9745 24.96V25.0213ZM28.524 22.3461V23.4693H29.0345C29.443 23.4693 29.5858 23.3468 29.5858 22.918V22.877C29.5858 22.4482 29.4021 22.3461 28.9732 22.3461H28.524ZM29.8106 24.96C29.8106 24.5312 29.6268 24.4087 29.2183 24.4087H28.5444V25.5726H29.2592C29.688 25.5726 29.8309 25.4296 29.8309 25.0008V24.96H29.8106Z" fill="white"/>
<path d="M32.7505 26.512H31.5866V21.4272H32.7505V26.512Z" fill="white"/>
<path d="M36.5083 26.512H33.5676V21.4272H34.7317V25.4706H36.5083V26.512Z" fill="white"/>
<path d="M38.2643 23.4285H39.8572V24.4495H38.2643V25.4706H40.2043V26.512H37.1004V21.4272H40.1431V22.4687H38.2643V23.4285Z" fill="white"/>
</g>
<defs>
<clipPath id="clip0_12_454">
<rect width="51.1655" height="44.2512" fill="white" transform="translate(0.151062 0.0874023)"/>
</clipPath>
</defs>
</svg>
