<svg width="65" height="44" viewBox="0 0 65 44" fill="none" xmlns="http://www.w3.org/2000/svg">
<path d="M25.4013 8.39941H40.1073V35.6329H25.4013V8.39941Z" fill="#FF5F00"/>
<path d="M26.335 22.015C26.335 16.4817 28.8559 11.5739 32.7308 8.39827C29.883 6.08871 26.2882 4.69336 22.3667 4.69336C13.0763 4.69336 5.55994 12.44 5.55994 22.015C5.55994 31.59 13.0763 39.3366 22.3667 39.3366C26.2882 39.3366 29.883 37.9413 32.7308 35.6317C28.8559 32.5042 26.335 27.5483 26.335 22.015Z" fill="#EB001B"/>
<path d="M59.9475 22.015C59.9475 31.59 52.4311 39.3366 43.1407 39.3366C39.2192 39.3366 35.6244 37.9413 32.7766 35.6317C36.6981 32.4561 39.1724 27.5483 39.1724 22.015C39.1724 16.4817 36.6515 11.5739 32.7766 8.39827C35.6244 6.08871 39.2192 4.69336 43.1407 4.69336C52.4311 4.69336 59.9475 12.4881 59.9475 22.015Z" fill="#F79E1B"/>
</svg>
