<svg width="112" height="44" viewBox="0 0 112 44" fill="none" xmlns="http://www.w3.org/2000/svg">
<path fill-rule="evenodd" clip-rule="evenodd" d="M93.1652 13.9263H99.974C102.573 13.9263 104.556 14.3737 105.867 15.2588C107.133 16.1119 107.747 17.3319 107.747 18.9896C107.747 20.4155 107.377 21.6001 106.644 22.5239C105.915 23.4381 104.864 24.0464 103.524 24.3297L102.914 24.4617L105.584 31.4531H99.7587L97.1817 22.8973L95.5912 31.4531H40.7041L43.2393 17.8984H39.9779L37.4428 31.4531H16.5828L12.7303 20.4188L10.7446 31.4531H4.92236L8.20621 13.9263H14.2984L18.2699 24.6677L20.262 13.9263H55.2789L54.5432 17.8984H48.9522L48.3803 20.9692H53.7655L53.1293 24.4038H47.7344L47.1689 27.4778H56.1497L58.6849 13.9263H64.5553L62.1358 26.7825H66.1523L68.5557 13.9263H74.4325L72.013 26.7825H76.1323L78.5358 13.9263H89.7721L89.0395 17.8984H83.5065L82.9314 20.9628L88.3005 20.95L87.6611 24.4038H82.2887L81.7168 27.4778H90.6332L93.1652 13.9263ZM98.2035 17.4734L97.3166 22.1763H97.9656H98.4734C99.63 22.1763 100.478 21.98 101.066 21.5775C101.507 21.2718 102.027 20.6763 102.027 19.5754C102.027 18.6612 101.58 18.1817 101.201 17.937C100.716 17.6279 100.013 17.4734 99.0485 17.4734H98.6469H98.2035ZM25.2648 17.8984L24.7315 20.9402H30.2646L29.6283 24.4038H24.0374L23.4623 27.4778H32.3756L34.1589 17.8984H25.2648Z" fill="#94C300"/>
</svg>
