<svg width="59" height="42" viewBox="0 0 59 42" fill="none" xmlns="http://www.w3.org/2000/svg">
<path fill-rule="evenodd" clip-rule="evenodd" d="M29.9547 18.4521C29.9309 20.331 31.6292 21.3794 32.9085 22.0028C34.2229 22.6425 34.6644 23.0526 34.6594 23.6245C34.6493 24.5 33.6108 24.8862 32.6388 24.9013C30.9431 24.9276 29.9572 24.4435 29.1734 24.0773L28.5626 26.9356C29.349 27.2981 30.8051 27.6142 32.3152 27.628C35.8597 27.628 38.1786 25.8783 38.1912 23.1655C38.205 19.7227 33.429 19.532 33.4616 17.9931C33.4728 17.5266 33.9181 17.0286 34.8939 16.9019C35.3767 16.838 36.7099 16.789 38.2213 17.4851L38.8145 14.7197C38.0018 14.4236 36.957 14.1401 35.6565 14.1401C32.3203 14.1401 29.9736 15.9136 29.9547 18.4521ZM44.515 14.3784C43.8678 14.3784 43.3222 14.756 43.0789 15.3354L38.0156 27.4248H41.5575L42.2623 25.4769H46.5906L46.9995 27.4248H50.1212L47.3971 14.3784H44.515ZM45.0103 17.9028L46.0325 22.8017H43.2331L45.0103 17.9028ZM25.6604 14.3784L22.8685 27.4248H26.2436L29.0342 14.3784H25.6604ZM20.6674 14.3784L17.1543 23.2582L15.7332 15.7079C15.5665 14.8651 14.908 14.3784 14.1768 14.3784H8.43381L8.35352 14.7573C9.53251 15.0131 10.872 15.4257 11.6834 15.8672C12.1801 16.1368 12.3219 16.3726 12.4849 17.0135L15.1764 27.4248H18.7434L24.2118 14.3784H20.6674Z" fill="white"/>
</svg>
