<svg width="164" height="44" viewBox="0 0 164 44" fill="none" xmlns="http://www.w3.org/2000/svg">
<path d="M64.0715 13.0576H56.5719C56.0587 13.0576 55.6223 13.4305 55.5422 13.9371L52.509 33.168C52.4487 33.5474 52.7426 33.8896 53.1275 33.8896H56.7079C57.2211 33.8896 57.6575 33.5167 57.7376 33.009L58.5556 27.8221C58.6346 27.3144 59.0721 26.9416 59.5842 26.9416H61.9583C66.8985 26.9416 69.7496 24.551 70.4942 19.8137C70.8298 17.7411 70.5085 16.1127 69.538 14.9723C68.4721 13.72 66.5816 13.0576 64.0715 13.0576ZM64.9367 20.0813C64.5266 22.7723 62.4705 22.7723 60.4823 22.7723H59.3507L60.1446 17.7466C60.1917 17.4429 60.4549 17.2192 60.762 17.2192H61.2807C62.635 17.2192 63.9125 17.2192 64.5726 17.9912C64.9663 18.4517 65.0869 19.136 64.9367 20.0813Z" fill="#253B80"/>
<path d="M86.4891 19.9945H82.8978C82.5918 19.9945 82.3275 20.2182 82.2804 20.5219L82.1214 21.5264L81.8703 21.1624C81.0928 20.034 79.3591 19.6567 77.6286 19.6567C73.6601 19.6567 70.2705 22.6625 69.6104 26.8789C69.2671 28.9821 69.7551 30.9933 70.9482 32.3958C72.0426 33.6854 73.6085 34.2228 75.4717 34.2228C78.6693 34.2228 80.4425 32.1666 80.4425 32.1666L80.2824 33.1645C80.2221 33.5462 80.516 33.8883 80.8987 33.8883H84.1336C84.6479 33.8883 85.0822 33.5154 85.1633 33.0077L87.1043 20.716C87.1657 20.3377 86.8729 19.9945 86.4891 19.9945ZM81.4832 26.9841C81.1366 29.0359 79.5082 30.4132 77.4313 30.4132C76.3884 30.4132 75.555 30.0787 75.0199 29.4449C74.4891 28.8154 74.2873 27.9195 74.4562 26.9216C74.7797 24.8875 76.4356 23.4652 78.4807 23.4652C79.5005 23.4652 80.3296 23.804 80.8757 24.4433C81.4229 25.0892 81.64 25.9906 81.4832 26.9841Z" fill="#253B80"/>
<path d="M105.616 19.9951H102.007C101.663 19.9951 101.339 20.1662 101.144 20.4524L96.1665 27.7842L94.0567 20.7386C93.924 20.2978 93.5171 19.9951 93.0566 19.9951H89.5102C89.0792 19.9951 88.7799 20.4162 88.9169 20.822L92.8921 32.4875L89.1549 37.7632C88.861 38.1788 89.1571 38.7501 89.6648 38.7501H93.2693C93.6114 38.7501 93.9316 38.5834 94.1257 38.3027L106.129 20.9766C106.416 20.5621 106.121 19.9951 105.616 19.9951Z" fill="#253B80"/>
<path d="M117.564 13.0576H110.064C109.551 13.0576 109.115 13.4305 109.035 13.9371L106.002 33.168C105.942 33.5474 106.235 33.8895 106.618 33.8895H110.467C110.825 33.8895 111.131 33.6286 111.187 33.2733L112.047 27.8221C112.126 27.3144 112.564 26.9416 113.076 26.9416H115.449C120.39 26.9416 123.24 24.551 123.986 19.8137C124.323 17.7411 123.999 16.1127 123.029 14.9723C121.964 13.72 120.074 13.0576 117.564 13.0576ZM118.429 20.0813C118.02 22.7723 115.964 22.7723 113.975 22.7723H112.845L113.64 17.7466C113.687 17.4429 113.948 17.2192 114.256 17.2192H114.775C116.128 17.2192 117.406 17.2192 118.067 17.9912C118.46 18.4517 118.58 19.136 118.429 20.0813Z" fill="#179BD7"/>
<path d="M139.981 19.9945H136.392C136.083 19.9945 135.821 20.2182 135.775 20.5219L135.616 21.5264L135.364 21.1624C134.587 20.034 132.854 19.6567 131.124 19.6567C127.155 19.6567 123.767 22.6625 123.106 26.8789C122.764 28.9821 123.25 30.9933 124.443 32.3958C125.54 33.6854 127.104 34.2228 128.967 34.2228C132.164 34.2228 133.937 32.1666 133.937 32.1666L133.777 33.1645C133.717 33.5462 134.011 33.8883 134.396 33.8883H137.63C138.142 33.8883 138.578 33.5154 138.658 33.0077L140.6 20.716C140.66 20.3377 140.366 19.9945 139.981 19.9945ZM134.975 26.9841C134.631 29.0359 133 30.4132 130.923 30.4132C129.882 30.4132 129.047 30.0787 128.512 29.4449C127.981 28.8154 127.781 27.9195 127.948 26.9216C128.274 24.8875 129.927 23.4652 131.972 23.4652C132.992 23.4652 133.821 23.804 134.367 24.4433C134.917 25.0892 135.134 25.9906 134.975 26.9841Z" fill="#179BD7"/>
<path d="M144.215 13.5847L141.137 33.1676C141.076 33.547 141.37 33.8892 141.753 33.8892H144.847C145.362 33.8892 145.798 33.5163 145.877 33.0086L148.912 13.7788C148.973 13.3994 148.679 13.0562 148.296 13.0562H144.831C144.525 13.0572 144.262 13.281 144.215 13.5847Z" fill="#179BD7"/>
<path d="M21.3648 37.6274L21.9383 33.9845L20.6608 33.9549H14.5604L18.7999 7.07416C18.813 6.993 18.8558 6.91735 18.9183 6.86362C18.9808 6.80988 19.0609 6.78027 19.1442 6.78027H29.4302C32.845 6.78027 35.2016 7.49086 36.4319 8.8934C37.0087 9.55136 37.3761 10.2389 37.5537 10.9956C37.7402 11.7895 37.7435 12.7381 37.5614 13.895L37.5483 13.9794V14.7207L38.1251 15.0475C38.6108 15.3052 38.9968 15.6002 39.2929 15.9379C39.7864 16.5005 40.1055 17.2154 40.2404 18.0631C40.3796 18.9349 40.3336 19.9723 40.1055 21.1467C39.8423 22.4977 39.4168 23.6744 38.8422 24.6372C38.3137 25.5243 37.6404 26.2601 36.841 26.8303C36.0777 27.372 35.1709 27.7833 34.1455 28.0464C33.152 28.3052 32.0192 28.4357 30.7768 28.4357H29.9763C29.4039 28.4357 28.8479 28.6419 28.4115 29.0114C27.9739 29.3887 27.6844 29.9041 27.5956 30.4677L27.5353 30.7956L26.522 37.2162L26.476 37.4519C26.4639 37.5265 26.4431 37.5638 26.4124 37.589C26.385 37.612 26.3455 37.6274 26.3071 37.6274L21.3648 37.6274Z" fill="#253B80"/>
<path d="M38.6712 14.0645C38.6405 14.2608 38.6054 14.4614 38.5659 14.6676C37.2094 21.632 32.5687 24.0379 26.6416 24.0379H23.6238C22.8989 24.0379 22.2881 24.5643 22.1752 25.2793L20.6301 35.0784L20.1925 37.8561C20.119 38.3254 20.4809 38.7487 20.9547 38.7487H26.3071C26.9409 38.7487 27.4794 38.2881 27.5792 37.6631L27.6318 37.3911L28.6396 30.9958L28.7043 30.6449C28.803 30.0176 29.3425 29.5571 29.9763 29.5571H30.7768C35.9626 29.5571 40.0222 27.4516 41.2087 21.359C41.7044 18.8138 41.4478 16.6886 40.1362 15.1939C39.7393 14.7432 39.2469 14.3693 38.6712 14.0645Z" fill="#179BD7"/>
<path d="M37.2522 13.4986C37.0449 13.4383 36.8311 13.3835 36.6118 13.3341C36.3914 13.2859 36.1655 13.2431 35.933 13.2058C35.1193 13.0742 34.2278 13.0117 33.2727 13.0117H25.2105C25.012 13.0117 24.8234 13.0567 24.6546 13.1378C24.2828 13.3166 24.0065 13.6686 23.9396 14.0995L22.2245 24.9624L22.1752 25.2793C22.2881 24.5643 22.8989 24.0379 23.6238 24.0379H26.6416C32.5687 24.0379 37.2094 21.6309 38.5659 14.6676C38.6065 14.4614 38.6405 14.2607 38.6712 14.0644C38.328 13.8824 37.9562 13.7267 37.556 13.594C37.4573 13.5611 37.3553 13.5293 37.2522 13.4986Z" fill="#222D65"/>
<path d="M23.9396 14.0994C24.0065 13.6684 24.2828 13.3164 24.6546 13.1388C24.8245 13.0576 25.0121 13.0127 25.2105 13.0127H33.2727C34.2278 13.0127 35.1193 13.0752 35.933 13.2068C36.1655 13.2441 36.3914 13.2868 36.6118 13.3351C36.8311 13.3844 37.0449 13.4393 37.2522 13.4996C37.3552 13.5303 37.4572 13.5621 37.557 13.5939C37.9573 13.7265 38.329 13.8834 38.6723 14.0643C39.0758 11.4906 38.669 9.73825 37.2774 8.15149C35.7433 6.40462 32.9744 5.65674 29.4313 5.65674H19.1453C18.4215 5.65674 17.8041 6.18311 17.6923 6.89918L13.4079 34.0562C13.3235 34.5936 13.738 35.0783 14.2797 35.0783H20.63L22.2245 24.9622L23.9396 14.0994Z" fill="#253B80"/>
</svg>
