<svg width="151" height="44" viewBox="0 0 151 44" fill="none" xmlns="http://www.w3.org/2000/svg">
<mask id="mask0_12_468" style="mask-type:luminance" maskUnits="userSpaceOnUse" x="22" y="18" width="12" height="18">
<path fill-rule="evenodd" clip-rule="evenodd" d="M25.7277 18.3179H30.1815C32.1468 18.3346 33.1441 19.3861 33.1768 21.4761V27.9089C33.1605 28.6543 32.8661 29.2966 32.2907 29.8357C31.7217 30.4015 31.0448 30.691 30.2535 30.7077H26.0416V35.3434H22.9253V21.5992C22.9449 20.5309 23.1868 19.7156 23.6578 19.1598C23.9063 18.9268 24.2169 18.7338 24.593 18.5708C24.9822 18.4011 25.3615 18.3179 25.7277 18.3179ZM26.0416 26.6475C26.0579 27.2499 26.385 27.5527 27.0226 27.5726H29.2463C29.4784 27.5726 29.6681 27.4861 29.8218 27.3164C29.982 27.1866 30.0605 27.0202 30.0605 26.8172V22.2047C30.0442 21.7189 29.8086 21.4692 29.3542 21.4526H26.9278C26.3523 21.4859 26.0579 21.7953 26.0416 22.3744V26.6475Z" fill="white"/>
</mask>
<g mask="url(#mask0_12_468)">
<path fill-rule="evenodd" clip-rule="evenodd" d="M15.3585 43.0471H40.7438V10.6133H15.3585V43.0471Z" fill="#008ACA"/>
</g>
<mask id="mask1_12_468" style="mask-type:luminance" maskUnits="userSpaceOnUse" x="35" y="18" width="11" height="13">
<path fill-rule="evenodd" clip-rule="evenodd" d="M35.7308 18.3179H42.7973C44.8574 18.3511 45.9038 19.323 45.9365 21.2464V27.8024C45.9202 28.631 45.6619 29.3166 45.1583 29.859C44.6318 30.4215 43.9517 30.7077 43.121 30.7077H38.8471C36.7706 30.691 35.7177 29.7625 35.685 27.9122V25.3831C35.7013 23.4495 36.7086 22.471 38.7 22.4344H42.8464V22.1284C42.8627 21.6591 42.5815 21.4395 42.0092 21.4528H35.7308V18.3179ZM39.0498 27.3764C39.197 27.5061 39.3802 27.5726 39.6156 27.5726H42.0092C42.5521 27.5726 42.83 27.3663 42.8463 26.9504V26.0752C42.8463 25.5992 42.5585 25.3596 41.9863 25.3596H39.6156C39.3049 25.3596 39.0891 25.4062 38.9681 25.5061C38.8569 25.6159 38.8014 25.8388 38.8014 26.1717V26.9504C38.8014 27.1301 38.8863 27.2731 39.0498 27.3764Z" fill="white"/>
</mask>
<g mask="url(#mask1_12_468)">
<path fill-rule="evenodd" clip-rule="evenodd" d="M28.1182 38.4081H53.5067V10.6133H28.1182V38.4081Z" fill="#008ACA"/>
</g>
<mask id="mask2_12_468" style="mask-type:luminance" maskUnits="userSpaceOnUse" x="48" y="18" width="11" height="18">
<path fill-rule="evenodd" clip-rule="evenodd" d="M55.5734 18.3179V26.7973C55.5734 27.0004 55.4819 27.1702 55.2955 27.3165C55.1092 27.4862 54.8802 27.5728 54.6187 27.5728H52.4179C51.8588 27.5728 51.5873 27.2433 51.5873 26.5778V18.3179H48.4677V27.5728C48.4677 28.0786 48.5396 28.4979 48.6835 28.8274C48.8175 29.1868 49.0431 29.533 49.3538 29.8624C49.6809 30.1752 50.0111 30.3915 50.3382 30.5147C50.6455 30.6412 51.0641 30.7077 51.5873 30.7077H55.5734V31.4497C55.5734 31.6395 55.4917 31.8059 55.3249 31.9524C55.1483 32.1088 54.9358 32.1953 54.6873 32.2119H48.4677V35.3434H55.7402C56.6461 35.3302 57.3523 35.014 57.8723 34.405C58.3824 33.7893 58.6473 32.9807 58.6636 31.9689V18.3179H55.5734Z" fill="white"/>
</mask>
<g mask="url(#mask2_12_468)">
<path fill-rule="evenodd" clip-rule="evenodd" d="M40.9009 43.0471H66.2339V10.6133H40.9009V43.0471Z" fill="#008ACA"/>
</g>
<mask id="mask3_12_468" style="mask-type:luminance" maskUnits="userSpaceOnUse" x="61" y="18" width="10" height="13">
<path fill-rule="evenodd" clip-rule="evenodd" d="M64.1861 18.3179C62.1947 18.3511 61.1842 19.2796 61.1516 21.1033V23.4395C61.1679 24.1483 61.4754 24.754 62.064 25.2432C62.6525 25.7791 63.349 26.0519 64.1666 26.0686H66.9167C67.0965 26.0686 67.2502 26.185 67.3745 26.4214C67.4235 26.5211 67.4497 26.611 67.4497 26.6909V26.9738C67.4333 27.3565 67.1684 27.5529 66.6616 27.5728H61.1091V30.7077H67.6262C68.1461 30.7077 68.5549 30.6511 68.859 30.5379C69.15 30.4148 69.4412 30.1985 69.7223 29.8857C70.3076 29.2467 70.6118 28.6045 70.6281 27.9655V25.6759C70.6118 24.9337 70.3371 24.2914 69.8139 23.7523C69.2973 23.2198 68.6727 22.9436 67.9402 22.9303H65.1966C64.5393 22.9303 64.209 22.7273 64.209 22.3313V22.0285C64.209 21.6458 64.5327 21.4528 65.1737 21.4528H70.6281V18.3179H64.1861Z" fill="white"/>
</mask>
<g mask="url(#mask3_12_468)">
<path fill-rule="evenodd" clip-rule="evenodd" d="M53.5422 38.4081H78.1983V10.6133H53.5422V38.4081Z" fill="#008ACA"/>
</g>
<mask id="mask4_12_468" style="mask-type:luminance" maskUnits="userSpaceOnUse" x="72" y="18" width="12" height="13">
<path fill-rule="evenodd" clip-rule="evenodd" d="M72.8918 18.3179H79.9617C82.0185 18.3511 83.0616 19.323 83.0943 21.2464V27.8024C83.0781 28.631 82.8164 29.3166 82.3161 29.859C81.7929 30.4215 81.1159 30.7077 80.2821 30.7077H76.0082C73.9318 30.691 72.8755 29.7625 72.8461 27.9122V25.3831C72.8624 23.4495 73.8664 22.471 75.8643 22.4344H80.0107V22.1284C80.0205 21.6591 79.7458 21.4395 79.167 21.4528H72.8918V18.3179ZM76.2142 27.3764C76.3581 27.5061 76.5444 27.5726 76.7766 27.5726H79.1736C79.7163 27.5726 79.9911 27.3663 80.0107 26.9504V26.0752C80.0107 25.5992 79.7229 25.3596 79.1474 25.3596H76.7766C76.4627 25.3596 76.2469 25.4062 76.1292 25.5061C76.018 25.6159 75.9592 25.8388 75.9592 26.1717V26.9504C75.9592 27.1301 76.0441 27.2731 76.2142 27.3764Z" fill="white"/>
</mask>
<g mask="url(#mask4_12_468)">
<path fill-rule="evenodd" clip-rule="evenodd" d="M65.2792 38.4081H90.6645V10.6133H65.2792V38.4081Z" fill="#008ACA"/>
</g>
<mask id="mask5_12_468" style="mask-type:luminance" maskUnits="userSpaceOnUse" x="85" y="13" width="6" height="18">
<path fill-rule="evenodd" clip-rule="evenodd" d="M88.9734 13.7075C87.989 13.7208 87.1977 13.9837 86.5894 14.5029C85.9649 15.0121 85.6444 15.691 85.6281 16.5396V30.7065H88.7477V21.4549H90.9517V18.3167H88.7477V17.6545C88.7575 17.0587 89.0976 16.7493 89.7549 16.736H90.9517V13.7075H88.9734Z" fill="white"/>
</mask>
<g mask="url(#mask5_12_468)">
<path fill-rule="evenodd" clip-rule="evenodd" d="M78.058 38.4111H98.5186V6.00391H78.058V38.4111Z" fill="#008ACA"/>
</g>
<mask id="mask6_12_468" style="mask-type:luminance" maskUnits="userSpaceOnUse" x="92" y="18" width="11" height="13">
<path fill-rule="evenodd" clip-rule="evenodd" d="M95.8306 18.3179H100.029C101.972 18.3511 102.953 19.3495 102.985 21.3197V23.7957L95.9581 26.5012V26.6976C95.9581 26.9505 96.0235 27.1468 96.1576 27.2932C96.259 27.4796 96.3866 27.5728 96.563 27.5728H102.966V30.7077H96.1576C95.5363 30.7077 95.0556 30.6511 94.7122 30.5379C94.3395 30.4148 94.0026 30.2185 93.7084 29.9423C93.3682 29.6128 93.1328 29.2767 93.0184 28.9273C92.8876 28.5645 92.8221 28.0853 92.8221 27.4862L92.796 21.2098C92.832 19.3129 93.8457 18.3511 95.8306 18.3179ZM95.9091 22.2514V23.5126L99.8136 22.0715V21.9985C99.8136 21.8353 99.7481 21.7022 99.6141 21.5991C99.4702 21.4992 99.2902 21.4526 99.0777 21.4526H96.9098C96.6318 21.4526 96.4061 21.5259 96.2328 21.6823C96.0169 21.8287 95.9091 22.0184 95.9091 22.2514Z" fill="white"/>
</mask>
<g mask="url(#mask6_12_468)">
<path fill-rule="evenodd" clip-rule="evenodd" d="M85.2285 38.4081H110.555V10.6133H85.2285V38.4081Z" fill="#008ACA"/>
</g>
<mask id="mask7_12_468" style="mask-type:luminance" maskUnits="userSpaceOnUse" x="105" y="18" width="10" height="13">
<path fill-rule="evenodd" clip-rule="evenodd" d="M109.224 18.2334C108.727 18.2334 108.286 18.2833 107.89 18.3832C107.481 18.4996 107.095 18.7426 106.716 19.1054C106.382 19.4548 106.163 19.8108 106.059 20.1736C105.944 20.5363 105.895 20.9556 105.915 21.4316V27.2787C105.915 27.8478 105.997 28.3537 106.17 28.7962C106.33 29.2488 106.624 29.6549 107.053 30.0209C107.471 30.3337 107.88 30.5201 108.289 30.5866C108.678 30.6632 109.11 30.7065 109.58 30.7065H114.074V29.9743H109.623C109.234 29.9743 108.864 29.9377 108.521 29.8612C108.191 29.798 107.854 29.6415 107.514 29.3886C107.2 29.0991 106.981 28.763 106.853 28.3835C106.722 27.9943 106.66 27.5981 106.66 27.1856V21.3317C106.66 20.4498 106.906 19.8275 107.39 19.4647C107.864 19.132 108.511 18.9689 109.335 18.9689H114.002V18.2334H109.224Z" fill="white"/>
</mask>
<g mask="url(#mask7_12_468)">
<path fill-rule="evenodd" clip-rule="evenodd" d="M98.3418 38.4083H121.644V10.5337H98.3418V38.4083Z" fill="#008ACA"/>
</g>
<mask id="mask8_12_468" style="mask-type:luminance" maskUnits="userSpaceOnUse" x="116" y="18" width="12" height="13">
<path fill-rule="evenodd" clip-rule="evenodd" d="M116.88 18.2334H123.296C123.881 18.2334 124.411 18.2767 124.891 18.3532C125.137 18.4031 125.362 18.4996 125.572 18.6328C125.787 18.7625 125.993 18.9523 126.183 19.2019C126.759 19.9274 127.04 20.766 127.027 21.7078V27.3319C127.027 27.8012 126.987 28.2138 126.925 28.5799C126.827 28.9759 126.621 29.3554 126.307 29.718C125.653 30.3903 124.839 30.7197 123.875 30.7064H120.15C119.185 30.7064 118.397 30.4202 117.792 29.8579C117.171 29.3021 116.86 28.53 116.86 27.5382V25.6514C116.89 23.5215 117.972 22.4333 120.104 22.3833H126.307V21.558C126.307 20.8792 126.105 20.2834 125.706 19.771C125.451 19.4381 125.15 19.2186 124.81 19.102C124.463 19.0122 124.077 18.9689 123.646 18.9689H116.88V18.2334ZM118.312 29.3153C118.852 29.7545 119.453 29.9741 120.104 29.9741H123.897C125.487 29.9542 126.281 29.1356 126.281 27.5148V23.1121H120.022C119.274 23.132 118.688 23.3583 118.263 23.7976C117.825 24.2402 117.609 24.8525 117.609 25.6246V27.4882C117.609 27.8509 117.648 28.1838 117.727 28.4799C117.805 28.7961 118.002 29.0723 118.312 29.3153Z" fill="white"/>
</mask>
<g mask="url(#mask8_12_468)">
<path fill-rule="evenodd" clip-rule="evenodd" d="M109.29 38.4083H134.597V10.5337H109.29V38.4083Z" fill="#008ACA"/>
</g>
<mask id="mask9_12_468" style="mask-type:luminance" maskUnits="userSpaceOnUse" x="130" y="18" width="5" height="13">
<path fill-rule="evenodd" clip-rule="evenodd" d="M134.149 18.2334C131.83 18.2334 130.689 19.4082 130.725 21.7577V30.7065H131.467V21.7543C131.434 19.9274 132.291 19.0023 134.028 18.9689H134.975V18.2334H134.149Z" fill="white"/>
</mask>
<g mask="url(#mask9_12_468)">
<path fill-rule="evenodd" clip-rule="evenodd" d="M123.155 38.4083H142.547V10.5337H123.155V38.4083Z" fill="#008ACA"/>
</g>
<mask id="mask10_12_468" style="mask-type:luminance" maskUnits="userSpaceOnUse" x="137" y="14" width="11" height="17">
<path fill-rule="evenodd" clip-rule="evenodd" d="M146.64 14.1948H147.386V27.2435C147.321 29.603 146.043 30.7611 143.558 30.7112H140.788C140.205 30.7112 139.683 30.6646 139.225 30.5681C138.747 30.4483 138.289 30.1621 137.851 29.7195C137.523 29.3202 137.311 28.9208 137.23 28.5047C137.112 28.0954 137.063 27.6395 137.082 27.1404V21.8124C137.112 19.413 138.349 18.2216 140.788 18.2382H146.64V14.1948ZM139.614 29.8424C139.957 29.9323 140.339 29.9756 140.761 29.9756H143.345C144.306 29.9756 145.094 29.7626 145.702 29.32C146.31 28.9107 146.617 28.2019 146.64 27.1902V18.9735H140.738C140.316 18.9735 139.934 19.0201 139.591 19.1066C139.23 19.1898 138.882 19.4029 138.557 19.7489C138.246 20.0651 138.054 20.3812 137.969 20.6908C137.861 21.0102 137.812 21.3896 137.828 21.8322V27.5396C137.828 28.4881 138.109 29.137 138.678 29.483C138.96 29.6428 139.267 29.7626 139.614 29.8424Z" fill="white"/>
</mask>
<g mask="url(#mask10_12_468)">
<path fill-rule="evenodd" clip-rule="evenodd" d="M129.51 38.4154H154.957V6.49414H129.51V38.4154Z" fill="#008ACA"/>
</g>
<mask id="mask11_12_468" style="mask-type:luminance" maskUnits="userSpaceOnUse" x="4" y="11" width="14" height="8">
<path fill-rule="evenodd" clip-rule="evenodd" d="M4.63543 17.5617C4.6158 17.8479 4.60926 18.1442 4.61907 18.457C4.90684 18.2207 5.23057 18.0077 5.61644 17.8447C5.86169 17.7382 6.1102 17.6582 6.35219 17.6051C6.80018 15.5051 8.70334 13.9244 10.9826 13.9244C13.265 13.9244 15.1681 15.5051 15.6195 17.6051C16.3193 17.7382 16.8948 18.0144 17.3494 18.427C17.3657 18.021 17.3494 17.6316 17.3003 17.269C17.0125 14.0907 14.2919 11.5981 10.9728 11.5981C7.55883 11.5981 4.7793 14.2471 4.63543 17.5617Z" fill="white"/>
</mask>
<g mask="url(#mask11_12_468)">
<path fill-rule="evenodd" clip-rule="evenodd" d="M-2.95424 26.1617H24.9228V3.89795H-2.95424V26.1617Z" fill="#E40006"/>
</g>
<mask id="mask12_12_468" style="mask-type:luminance" maskUnits="userSpaceOnUse" x="4" y="18" width="14" height="13">
<path fill-rule="evenodd" clip-rule="evenodd" d="M7.08182 18.3179C6.71558 18.3179 6.33625 18.4011 5.94385 18.5708C5.56779 18.7338 5.26041 18.9268 5.01188 19.1598C4.53773 19.7156 4.29575 20.5309 4.28267 21.5992V27.4263C4.29575 28.4979 4.53773 29.31 5.01188 29.859C5.26041 30.0954 5.56779 30.2918 5.94385 30.4514C6.33625 30.6211 6.71558 30.7077 7.08182 30.7077H14.6913C16.6565 30.691 17.6571 29.6327 17.6866 27.5461V21.4761C17.6571 19.3861 16.6565 18.3346 14.6913 18.3179H7.08182Z" fill="white"/>
</mask>
<g mask="url(#mask12_12_468)">
<path fill-rule="evenodd" clip-rule="evenodd" d="M-3.28745 38.4081H25.2566V10.6133H-3.28745V38.4081Z" fill="#E40006"/>
</g>
</svg>
