<svg width="74" height="44" viewBox="0 0 74 44" fill="none" xmlns="http://www.w3.org/2000/svg">
<path fill-rule="evenodd" clip-rule="evenodd" d="M47.9664 12.3343C47.9664 13.784 49.1327 14.9596 50.5709 14.9596C52.009 14.9596 53.1779 13.784 53.1779 12.3343C53.1779 10.8821 52.009 9.70654 50.5709 9.70654C49.1327 9.70654 47.9664 10.8821 47.9664 12.3343ZM63.1732 11.8553V31.3563H68.466V10.8999L63.1732 11.8553ZM55.4564 11.8553V31.3563H60.7391V10.8999L55.4564 11.8553ZM22.1315 11.9884V31.3563H27.587V25.3708C29.1675 27.7578 29.9502 31.3563 29.9502 31.3563H36.4856C35.8376 28.6465 33.0095 23.6496 33.0095 23.6496C35.5479 20.4071 36.6635 16.952 36.8413 16.3783H30.6006C30.4838 16.6754 29.6376 19.0856 27.587 21.5853V10.8999L22.1315 11.9884ZM4.94177 17.4002C4.94177 19.1266 5.67358 23.1963 12.5037 23.6675C13.0806 23.7034 14.6154 23.7905 14.6154 25.2426C14.6154 26.4414 13.3575 27.1482 11.246 27.1482C8.92603 27.1482 6.67726 26.5514 5.31275 25.9854V30.7673C7.35824 31.3051 9.66039 31.574 12.364 31.574C18.1905 31.574 20.8025 28.2624 20.8025 24.984C20.8025 21.26 17.8805 18.8422 12.9789 18.5092C12.3106 18.4658 10.7632 18.3658 10.7632 16.9623C10.7632 15.2668 12.9916 15.2668 13.8276 15.2668C15.2963 15.2668 17.197 15.7047 18.559 16.1145C18.559 16.1145 19.3162 16.3835 19.9616 16.6601L20.0225 16.6754V16.614V12.0345L19.9412 12.0115C18.3354 11.4455 16.4703 10.8999 13.0145 10.8999C7.05079 10.8999 4.94177 14.4011 4.94177 17.4002ZM44.9478 16.1792C40.0589 16.3354 37.5765 18.5457 37.5765 22.9382V31.3568H42.9099V24.4928C42.9099 21.8625 43.2529 20.733 46.3504 20.628V16.2534C46.0302 16.1868 45.5729 16.174 45.268 16.174C45.0774 16.174 44.9478 16.1792 44.9478 16.1792ZM47.9275 31.3564H53.2177V16.3964H47.9275V31.3564Z" fill="#862165"/>
</svg>
