<svg width="91" height="44" viewBox="0 0 91 44" fill="none" xmlns="http://www.w3.org/2000/svg">
<g clip-path="url(#clip0_12_425)">
<path d="M84.6005 0.0874023H6.47875C3.3258 0.0874023 0.769836 2.64337 0.769836 5.79632V37.476C0.769836 40.629 3.3258 43.1849 6.47875 43.1849H84.6005C87.7534 43.1849 90.3094 40.629 90.3094 37.476V5.79632C90.3094 2.64337 87.7534 0.0874023 84.6005 0.0874023Z" fill="#0EE06E"/>
<path d="M11.5834 35.4213H10.708V30.2119H11.5834V35.4213Z" fill="black"/>
<path d="M12.6919 35.4211V31.6152H13.5101V32.0909C13.6309 31.9159 13.7948 31.775 13.9859 31.6818C14.1834 31.5879 14.3999 31.5407 14.6186 31.5438C14.9716 31.5359 15.3135 31.6675 15.5701 31.9101C15.702 32.0528 15.8034 32.2209 15.868 32.4042C15.9326 32.5874 15.9591 32.7819 15.946 32.9758V35.4116H15.1086V33.1803C15.1231 32.9497 15.0501 32.722 14.9041 32.5428C14.8335 32.4666 14.7472 32.4066 14.651 32.3671C14.5549 32.3277 14.4513 32.3097 14.3475 32.3145C14.2404 32.313 14.1342 32.3334 14.0352 32.3743C13.9362 32.4152 13.8466 32.4758 13.7718 32.5524C13.6904 32.6355 13.6271 32.7347 13.5862 32.8437C13.5452 32.9526 13.5274 33.0689 13.5339 33.1851V35.4211H12.6919Z" fill="black"/>
<path d="M17.4588 35.3306C17.2528 35.2335 17.0757 35.0843 16.945 34.8977C16.8273 34.7326 16.7506 34.5418 16.7214 34.3411L17.4826 34.1698C17.4906 34.264 17.519 34.3554 17.5658 34.4375C17.6126 34.5197 17.6768 34.5907 17.7538 34.6456C17.9214 34.7606 18.1215 34.819 18.3247 34.8121C18.4908 34.8187 18.6554 34.7792 18.8004 34.6979C18.8485 34.6692 18.8891 34.6295 18.9188 34.5819C18.9485 34.5344 18.9664 34.4805 18.9711 34.4247C18.9757 34.3689 18.967 34.3127 18.9456 34.2609C18.9242 34.2092 18.8907 34.1632 18.848 34.127C18.7316 34.0388 18.5965 33.9786 18.4531 33.951L17.8156 33.7702C17.53 33.7151 17.266 33.5798 17.0544 33.3801C16.967 33.2839 16.8996 33.1713 16.8563 33.0487C16.813 32.9262 16.7946 32.7962 16.8023 32.6665C16.8006 32.4633 16.8603 32.2643 16.9736 32.0956C17.1015 31.9172 17.2759 31.7773 17.4778 31.6912C17.7232 31.5884 17.9874 31.5381 18.2533 31.5437C18.5199 31.536 18.7849 31.588 19.0288 31.696C19.2169 31.7872 19.3802 31.9227 19.5045 32.0908C19.6132 32.24 19.685 32.4128 19.7138 32.5951L18.9717 32.7569C18.9361 32.6072 18.8546 32.4725 18.7386 32.3715C18.5902 32.2585 18.4061 32.2028 18.22 32.2145C18.0675 32.2083 17.9167 32.2481 17.7871 32.3287C17.7368 32.3599 17.6951 32.4033 17.666 32.4548C17.6369 32.5064 17.6213 32.5644 17.6206 32.6236C17.6206 32.8235 17.7633 32.9567 18.0487 33.028L18.8337 33.2374C19.476 33.4039 19.7852 33.7607 19.7852 34.3125C19.787 34.5217 19.7274 34.7268 19.6139 34.9025C19.4852 35.0903 19.3052 35.2373 19.0954 35.3259C18.8387 35.4361 18.5612 35.4897 18.2819 35.4829C17.9997 35.492 17.719 35.44 17.4588 35.3306Z" fill="black"/>
<path d="M21.7405 35.4205C21.6129 35.4279 21.4851 35.4085 21.3654 35.3634C21.2458 35.3183 21.1369 35.2487 21.0459 35.1589C20.959 35.0606 20.8924 34.9461 20.85 34.822C20.8075 34.6979 20.79 34.5666 20.7985 34.4357V32.3425H20.1753V31.6384H20.7985V30.7392L21.6406 30.4966V31.6384H22.4161V32.3425H21.6406V34.3073C21.6353 34.3596 21.641 34.4125 21.6574 34.4625C21.6738 34.5125 21.7005 34.5585 21.7358 34.5975C21.821 34.6677 21.9302 34.7018 22.0402 34.6926H22.516V35.4062L21.7405 35.4205Z" fill="black"/>
<path d="M23.3009 35.1976C23.1944 35.0904 23.1111 34.9624 23.0563 34.8217C23.0014 34.6809 22.9762 34.5303 22.9822 34.3793C22.9768 34.2353 23.001 34.0918 23.0534 33.9576C23.1058 33.8233 23.1852 33.7013 23.2867 33.5991C23.515 33.3872 23.805 33.2538 24.1145 33.2185L25.3942 33.0234V32.8189C25.3988 32.74 25.3859 32.6611 25.3562 32.5879C25.3266 32.5146 25.2811 32.4489 25.2229 32.3954C25.0864 32.2922 24.9181 32.2401 24.7472 32.248C24.5656 32.237 24.3858 32.2891 24.2382 32.3954C24.1098 32.4967 24.0179 32.637 23.9765 32.7951L23.1297 32.6286C23.2199 32.3211 23.4109 32.053 23.672 31.8674C23.9982 31.6562 24.3831 31.5546 24.771 31.5772C25.1651 31.5494 25.5553 31.6699 25.8652 31.9149C25.9946 32.0445 26.0946 32.2003 26.1587 32.3718C26.2227 32.5433 26.2491 32.7266 26.2363 32.9092V35.445H25.3942V35.0358C25.2523 35.195 25.0765 35.3204 24.8797 35.4028C24.6829 35.4851 24.4702 35.5223 24.2572 35.5116C24.0849 35.5255 23.9116 35.5049 23.7474 35.451C23.5832 35.397 23.4314 35.3109 23.3009 35.1976ZM24.9137 34.7218C25.0573 34.6444 25.1785 34.5313 25.2658 34.3936C25.352 34.25 25.3965 34.0853 25.3942 33.9178V33.5848L24.4094 33.7703C24.2414 33.7841 24.0842 33.8585 23.967 33.9797C23.8765 34.0875 23.8275 34.2242 23.829 34.365C23.8263 34.4358 23.8394 34.5062 23.8674 34.5712C23.8954 34.6362 23.9375 34.6942 23.9908 34.7409C24.1137 34.8377 24.2675 34.8867 24.4237 34.8788C24.5979 34.8702 24.7669 34.816 24.9137 34.7218Z" fill="black"/>
<path d="M27.1782 35.4211V31.6152H27.9965V32.0909C28.1173 31.9159 28.2812 31.775 28.4723 31.6818C28.6698 31.5879 28.8863 31.5407 29.105 31.5438C29.458 31.5359 29.7999 31.6675 30.0565 31.9101C30.1884 32.0528 30.2897 32.2209 30.3544 32.4042C30.419 32.5874 30.4455 32.7819 30.4323 32.9758V35.4116H29.595V33.1803C29.6095 32.9497 29.5364 32.722 29.3905 32.5428C29.3204 32.4672 29.2348 32.4076 29.1396 32.3682C29.0443 32.3287 28.9416 32.3104 28.8386 32.3145C28.7315 32.313 28.6253 32.3334 28.5263 32.3743C28.4274 32.4152 28.3378 32.4758 28.2629 32.5524C28.1815 32.6355 28.1183 32.7347 28.0773 32.8437C28.0364 32.9526 28.0186 33.0689 28.0251 33.1851V35.4211H27.1782Z" fill="black"/>
<path d="M32.5637 35.4205C32.436 35.4279 32.3082 35.4085 32.1886 35.3634C32.0689 35.3183 31.9601 35.2487 31.8691 35.1589C31.7822 35.0606 31.7156 34.9461 31.6731 34.822C31.6307 34.6979 31.6132 34.5666 31.6217 34.4357V32.3425H30.9985V31.6384H31.6217V30.7392L32.4638 30.4966V31.6384H33.2392V32.3425H32.4638V34.3073C32.4596 34.3595 32.4658 34.4121 32.4821 34.462C32.4985 34.5118 32.5246 34.5579 32.5589 34.5975C32.6446 34.6668 32.7535 34.7008 32.8634 34.6926H33.3391V35.4062L32.5637 35.4205Z" fill="black"/>
<path d="M39.5856 33.1372C39.7441 33.3677 39.8257 33.6425 39.8187 33.9222C39.8276 34.202 39.7584 34.4787 39.6189 34.7214C39.488 34.9501 39.2928 35.1354 39.0575 35.2542C38.796 35.3839 38.5073 35.4491 38.2155 35.4445H35.8368V30.2114H38.1156C38.4922 30.1901 38.8628 30.3125 39.1527 30.5539C39.2828 30.6743 39.3844 30.8222 39.4502 30.9867C39.5161 31.1513 39.5444 31.3285 39.5333 31.5054C39.5323 31.7427 39.4661 31.9751 39.342 32.1774C39.2178 32.3796 39.0404 32.5437 38.8292 32.6519C39.1299 32.7212 39.3973 32.8927 39.5856 33.1372ZM36.6931 30.9963V32.3427H37.9586C38.1328 32.3413 38.3011 32.279 38.4343 32.1667C38.5029 32.1027 38.5564 32.0242 38.591 31.937C38.6256 31.8498 38.6403 31.756 38.6341 31.6624C38.639 31.5731 38.6236 31.4839 38.589 31.4015C38.5544 31.3191 38.5015 31.2456 38.4343 31.1866C38.2986 31.0804 38.1309 31.0234 37.9586 31.0249L36.6931 30.9963ZM38.1203 34.6358C38.3284 34.6395 38.5309 34.5687 38.6912 34.436C38.7736 34.3644 38.8384 34.2748 38.8804 34.1741C38.9225 34.0735 38.9408 33.9644 38.9338 33.8556C38.9391 33.7492 38.9194 33.6431 38.8765 33.5456C38.8336 33.4482 38.7685 33.3621 38.6865 33.2942C38.5262 33.1615 38.3236 33.0906 38.1156 33.0944H36.6883V34.6453L38.1203 34.6358Z" fill="black"/>
<path d="M40.6418 35.1975C40.5344 35.0907 40.4502 34.963 40.3945 34.8222C40.3389 34.6813 40.3129 34.5305 40.3183 34.3792C40.3137 34.2349 40.3389 34.0913 40.392 33.9571C40.4452 33.8229 40.5254 33.701 40.6275 33.599C40.8558 33.3871 41.1458 33.2538 41.4553 33.2184L42.7303 33.0234V32.8188C42.7349 32.7399 42.7219 32.661 42.6923 32.5878C42.6627 32.5146 42.6172 32.4488 42.559 32.3954C42.4231 32.2911 42.2544 32.2387 42.0833 32.2479C41.9017 32.237 41.7218 32.289 41.5742 32.3954C41.4459 32.4966 41.354 32.6369 41.3126 32.795L40.4895 32.6237C40.5757 32.3207 40.7597 32.0548 41.0128 31.8673C41.339 31.6562 41.7239 31.5545 42.1118 31.5771C42.5044 31.5496 42.8931 31.6701 43.2013 31.9149C43.3301 32.0405 43.431 32.1918 43.4974 32.359C43.5638 32.5263 43.5942 32.7056 43.5866 32.8854V35.4211H42.7303V35.012C42.5902 35.1722 42.4154 35.2983 42.2191 35.3808C42.0229 35.4632 41.8105 35.4998 41.598 35.4877C41.4273 35.5049 41.255 35.4881 41.0909 35.4383C40.9267 35.3884 40.7741 35.3066 40.6418 35.1975ZM42.2545 34.7218C42.3971 34.6447 42.5169 34.5315 42.6018 34.3935C42.6881 34.25 42.7326 34.0852 42.7303 33.9177V33.5847L41.7455 33.7703C41.5788 33.7839 41.423 33.8584 41.3078 33.9796C41.2173 34.0875 41.1684 34.2241 41.1698 34.3649C41.1671 34.4357 41.1803 34.5061 41.2082 34.5711C41.2362 34.6362 41.2784 34.6941 41.3316 34.7408C41.4526 34.8377 41.605 34.8868 41.7598 34.8788C41.9355 34.87 42.1059 34.816 42.2545 34.7218Z" fill="black"/>
<path d="M44.5381 35.4215V31.6155H45.3611V32.0913C45.4816 31.916 45.6455 31.775 45.8369 31.6821C46.0265 31.5957 46.2327 31.5519 46.4411 31.5537C46.616 31.549 46.7901 31.579 46.9534 31.6419C47.1167 31.7047 47.2659 31.7993 47.3926 31.92C47.5253 32.0623 47.6275 32.2303 47.693 32.4135C47.7584 32.5968 47.7857 32.7915 47.7731 32.9857V35.4215H46.9168V33.1807C46.93 32.9494 46.8552 32.7217 46.7075 32.5432C46.6369 32.4669 46.5506 32.407 46.4544 32.3675C46.3583 32.3281 46.2547 32.3101 46.1509 32.3149C46.0445 32.3135 45.939 32.3339 45.8408 32.3748C45.7427 32.4157 45.6539 32.4763 45.58 32.5528C45.4977 32.6355 45.4336 32.7345 45.3918 32.8435C45.35 32.9524 45.3315 33.0689 45.3373 33.1855V35.4215H44.5381Z" fill="black"/>
<path d="M52.2737 35.4213H51.2937L50.2042 33.5183L49.6095 34.1273V35.4261H48.7675V30.2119H49.6095V32.995L50.9226 31.6391H52.0311L50.5372 33.171H51.013L52.2737 35.4213Z" fill="black"/>
<path d="M55.8941 35.4213H55.0044V31.0112H53.4155V30.2119H57.4736V31.0112H55.8846L55.8941 35.4213Z" fill="black"/>
<path d="M57.3118 35.4217V31.6157H58.1348V32.2199C58.2148 32.0261 58.3506 31.8605 58.525 31.7442C58.6708 31.664 58.8343 31.6214 59.0007 31.6205H59.3432V32.434H59.0435C58.9205 32.4289 58.7979 32.451 58.6845 32.4987C58.571 32.5464 58.4694 32.6185 58.387 32.7099C58.1948 32.9611 58.1032 33.2749 58.1301 33.5901V35.4026L57.3118 35.4217Z" fill="black"/>
<path d="M60.0378 35.1976C59.9313 35.0904 59.848 34.9624 59.7932 34.8217C59.7383 34.6809 59.7131 34.5303 59.7191 34.3793C59.7137 34.2353 59.7379 34.0918 59.7903 33.9576C59.8426 33.8233 59.922 33.7013 60.0235 33.5991C60.2518 33.3872 60.5419 33.2538 60.8513 33.2185L62.1311 33.0234V32.8189C62.1357 32.74 62.1227 32.6611 62.0931 32.5879C62.0635 32.5146 62.018 32.4489 61.9598 32.3954C61.8233 32.2922 61.655 32.2401 61.4841 32.248C61.3026 32.2378 61.123 32.2898 60.975 32.3954C60.8437 32.504 60.7517 32.6528 60.7134 32.8189L59.8951 32.6476C59.974 32.3372 60.1549 32.0624 60.4089 31.8674C60.735 31.6562 61.12 31.5546 61.5079 31.5772C61.902 31.5494 62.2922 31.6699 62.6021 31.9149C62.7314 32.0445 62.8315 32.2003 62.8955 32.3718C62.9596 32.5433 62.986 32.7266 62.9731 32.9092V35.445H62.1406V35.0358C61.9987 35.195 61.8229 35.3204 61.6261 35.4028C61.4293 35.4851 61.2166 35.5223 61.0036 35.5116C60.8298 35.5268 60.6547 35.5068 60.4887 35.4529C60.3228 35.3989 60.1694 35.3121 60.0378 35.1976ZM61.6649 34.7218C61.8084 34.6444 61.9296 34.5313 62.0169 34.3936C62.1032 34.25 62.1477 34.0853 62.1454 33.9178V33.5848L61.1606 33.7323C60.9937 33.745 60.8376 33.8197 60.7229 33.9416C60.6291 34.0479 60.5783 34.1852 60.5802 34.327C60.5709 34.3986 60.5781 34.4713 60.6012 34.5398C60.6243 34.6082 60.6627 34.6704 60.7134 34.7218C60.8367 34.8179 60.9902 34.8668 61.1463 34.8598C61.3285 34.862 61.5078 34.8142 61.6649 34.7218Z" fill="black"/>
<path d="M63.9151 35.4211V31.6152H64.7334V32.0909C64.8542 31.9159 65.018 31.775 65.2092 31.6818C65.4067 31.5879 65.6232 31.5407 65.8419 31.5438C66.1949 31.5359 66.5368 31.6675 66.7934 31.9101C66.9253 32.0528 67.0266 32.2209 67.0913 32.4042C67.1559 32.5874 67.1824 32.7819 67.1692 32.9758V35.4116H66.3272V33.1803C66.3416 32.9497 66.2686 32.722 66.1226 32.5428C66.052 32.4666 65.9657 32.4066 65.8695 32.3671C65.7734 32.3277 65.6698 32.3097 65.566 32.3145C65.459 32.3136 65.3529 32.3342 65.254 32.375C65.1551 32.4159 65.0655 32.4762 64.9903 32.5524C64.9098 32.6362 64.8472 32.7355 64.8063 32.8443C64.7654 32.953 64.7471 33.069 64.7524 33.1851V35.4211H63.9151Z" fill="black"/>
<path d="M68.6821 35.3306C68.4681 35.2358 68.2827 35.0865 68.1445 34.8976C68.0262 34.7333 67.951 34.5419 67.9256 34.341L68.6821 34.1697C68.691 34.2637 68.7197 34.3548 68.7665 34.4368C68.8132 34.5188 68.8769 34.5899 68.9532 34.6455C69.1209 34.7606 69.3209 34.8189 69.5241 34.812C69.6903 34.8194 69.8552 34.7798 69.9999 34.6978C70.055 34.6688 70.1016 34.6259 70.1349 34.5733C70.1683 34.5207 70.1874 34.4603 70.1902 34.3981C70.1921 34.348 70.1828 34.2981 70.1631 34.252C70.1434 34.2059 70.1136 34.1648 70.076 34.1317C69.9596 34.0435 69.8245 33.9833 69.6811 33.9557L69.0389 33.7701C68.7537 33.7138 68.49 33.5786 68.2777 33.38C68.1289 33.2024 68.0411 32.9816 68.0274 32.7503C68.0137 32.519 68.0748 32.2895 68.2016 32.0955C68.32 31.9196 68.4846 31.7797 68.6773 31.6911C68.9245 31.589 69.1901 31.5388 69.4575 31.5436C69.7226 31.5363 69.9859 31.5883 70.2282 31.6959C70.4164 31.7871 70.5796 31.9226 70.704 32.0908C70.8145 32.2389 70.8865 32.4122 70.9133 32.595L70.2282 32.7711C70.1945 32.6207 70.1126 32.4854 69.9951 32.3857C69.8468 32.2727 69.6627 32.217 69.4765 32.2287C69.3241 32.2225 69.1732 32.2623 69.0436 32.3429C68.9933 32.3741 68.9517 32.4175 68.9226 32.469C68.8935 32.5206 68.8778 32.5787 68.8771 32.6379C68.8771 32.8377 69.0198 32.9709 69.3053 33.0422L70.0903 33.2516C70.7325 33.4181 71.0417 33.7749 71.0417 34.3267C71.0441 34.5367 70.9827 34.7424 70.8657 34.9167C70.737 35.1045 70.557 35.2515 70.3472 35.3401C70.0904 35.4503 69.8129 35.5039 69.5336 35.4971C69.2409 35.5054 68.9501 35.4485 68.6821 35.3306Z" fill="black"/>
<path d="M73.2778 30.9158C73.0542 30.9158 72.94 31.0395 72.94 31.2868V31.6579H73.7202V32.343H72.94V35.4401H72.0979V32.343H71.4557V31.6389H72.0979V31.2535C72.079 30.9768 72.1619 30.7027 72.331 30.4828C72.4217 30.3879 72.5323 30.3143 72.6549 30.2674C72.7775 30.2205 72.909 30.2015 73.0399 30.2117H73.7392V30.9158H73.2778Z" fill="black"/>
<path d="M77.1883 32.0907C77.4946 32.5014 77.6477 33.0062 77.6212 33.5179C77.6212 33.6178 77.6212 33.6939 77.6212 33.7463H74.9856C74.9952 34.0258 75.0954 34.2946 75.2711 34.5122C75.3539 34.6028 75.4557 34.674 75.5691 34.7209C75.6826 34.7677 75.805 34.7891 75.9276 34.7834C76.1214 34.7918 76.312 34.7311 76.4652 34.6121C76.6175 34.4749 76.7266 34.2964 76.7792 34.0983L77.5927 34.2886C77.5072 34.6495 77.3007 34.9702 77.0075 35.1973C76.707 35.3894 76.3604 35.4974 76.0039 35.5099C75.6475 35.5225 75.2942 35.4392 74.9809 35.2686C74.708 35.1058 74.4894 34.8657 74.3529 34.5788C74.2086 34.2471 74.1341 33.8892 74.1341 33.5274C74.1341 33.1657 74.2086 32.8078 74.3529 32.476C74.4875 32.1933 74.7027 31.9566 74.9713 31.7957C75.2601 31.6291 75.5897 31.5467 75.9228 31.5578C76.1605 31.5439 76.3981 31.5847 76.6175 31.6771C76.8369 31.7695 77.0322 31.911 77.1883 32.0907ZM75.3329 32.4808C75.1631 32.6468 75.0527 32.8642 75.0189 33.0992H76.7887C76.7562 32.861 76.6458 32.6402 76.4747 32.4713C76.3174 32.3366 76.1156 32.2653 75.9086 32.2715C75.6972 32.2665 75.4917 32.3412 75.3329 32.4808Z" fill="black"/>
<path d="M78.4586 35.4217V31.6157H79.2673V32.2199C79.3489 32.0271 79.4844 31.862 79.6574 31.7442C79.8122 31.6605 79.9858 31.6179 80.1617 31.6205H80.5043V32.434H80.2188C80.0952 32.4295 79.9721 32.4518 79.8579 32.4995C79.7438 32.5471 79.6413 32.6189 79.5575 32.7099C79.369 32.9628 79.2794 33.2758 79.3054 33.5901V35.4026L78.4586 35.4217Z" fill="black"/>
<path d="M33.3439 22.7992V13.1225H29.8662V10.8247H39.3049V13.1225H35.8368V22.7992H33.3439Z" fill="black"/>
<path d="M38.9196 22.7997V14.1079H41.2079V15.4828C41.7455 14.3172 42.4544 14.1079 43.206 14.1079H44.0909V16.4343H43.3488C42.2641 16.4343 41.2983 17.0575 41.2983 18.9605V22.7997H38.9196Z" fill="black"/>
<path d="M45.1851 19.617V14.1079H47.5638V19.0747C47.5638 20.0928 48.0396 20.8492 49.0719 20.8492C49.2959 20.8494 49.5174 20.803 49.7225 20.7129C49.9275 20.6227 50.1115 20.4909 50.2628 20.3258C50.414 20.1606 50.5292 19.9658 50.6011 19.7537C50.6729 19.5415 50.6998 19.3168 50.6799 19.0937V14.1079H53.0587V22.7997H50.7941V21.7008C50.5241 22.1152 50.1511 22.4523 49.7116 22.6792C49.2721 22.906 48.7812 23.0148 48.287 22.9948C46.384 22.9948 45.1851 21.6865 45.1851 19.617Z" fill="black"/>
<path d="M54.0767 20.3549L56.1415 19.8792C56.2414 20.5547 56.7837 21.0638 57.8161 21.0638C58.6201 21.0638 59.0625 20.7355 59.0625 20.3216C59.0625 19.9933 58.8817 19.7507 58.0635 19.5699L56.6981 19.275C54.9616 18.8944 54.2242 18.0904 54.2242 16.6346C54.2242 15.1788 55.4516 13.9419 57.7638 13.9419C60.2281 13.9419 61.2129 15.4167 61.308 16.3872L59.2243 16.863C59.1291 16.3587 58.7485 15.7973 57.7162 15.7973C57.0596 15.7973 56.5696 16.0923 56.5696 16.5204C56.5696 16.9486 56.817 17.077 57.2404 17.1769L59.2243 17.6527C60.7371 17.9952 61.4412 18.8991 61.4412 20.1741C61.4412 21.5538 60.3423 23 57.8304 23C55.0758 22.9667 54.1719 21.3064 54.0767 20.3549Z" fill="black"/>
<path d="M66.0179 22.7994C64.4765 22.7994 63.4441 21.9478 63.4441 20.2589V16.1913H61.9836V14.1075H63.4441V12.1713L65.8228 11.4814V14.1075H67.5783V16.1913H65.8228V19.8307C65.8228 20.4682 66.1511 20.7156 66.7743 20.7156H67.6925V22.7994H66.0179Z" fill="black"/>
<path d="M69.0008 22.7992V10.8247H71.3795V22.7992H69.0008Z" fill="black"/>
<path d="M78.5489 14.1079H81.0894L77.469 25.9158H74.9238L75.9228 22.7997H74.6146L72.2358 14.1079H74.7811L76.5651 20.8302L78.5489 14.1079Z" fill="black"/>
<path d="M9.45683 16.0674H15.042V11.6144L19.495 16.0674L15.042 20.5203V22.7992H20.4465V16.0674H25.4132V10.8247H9.45683V16.0674Z" fill="black"/>
</g>
<defs>
<clipPath id="clip0_12_425">
<rect width="89.5396" height="43.0975" fill="white" transform="translate(0.769836 0.0874023)"/>
</clipPath>
</defs>
</svg>
