<svg xmlns="http://www.w3.org/2000/svg" width="24" height="24" viewBox="0 0 24 24" fill="none">
  <path fill-rule="evenodd" clip-rule="evenodd" d="M12 2C14.6709 2 17.1818 3.04 19.07 4.92909C20.9591 6.81818 22 9.32909 22 12C22 14.6709 20.9591 17.1818 19.07 19.0709C17.1818 20.96 14.67 22 12 22C9.32818 22 6.81636 20.96 4.92818 19.0709C4.57364 18.7164 4.57364 18.1409 4.92818 17.7855C5.28364 17.43 5.85909 17.43 6.21364 17.7855C7.76 19.3309 9.81364 20.1818 12 20.1818C14.1845 20.1818 16.2391 19.3309 17.7845 17.7855C19.33 16.24 20.1818 14.1855 20.1818 12C20.1818 9.81545 19.33 7.76091 17.7845 6.21455C16.24 4.66909 14.1845 3.81818 12 3.81818C9.81364 3.81818 7.75909 4.66909 6.21364 6.21455C4.66909 7.76 3.81818 9.81455 3.81818 12C3.81818 12.5018 3.41091 12.9091 2.90909 12.9091C2.40636 12.9091 2 12.5018 2 12C2 9.32909 3.04 6.81818 4.92818 4.92909C6.81636 3.04 9.32818 2 12 2ZM9.06245 14.9375L7.49064 13.3657L4.77882 16.0775C4.60064 16.2557 4.36791 16.3439 4.13609 16.3439C3.90336 16.3439 3.67064 16.2557 3.49336 16.0775C3.13791 15.723 3.13791 15.1475 3.49336 14.792L6.84791 11.4375C7.20336 11.082 7.77791 11.082 8.13336 11.4375L9.70518 13.0084L12.4606 10.2539H9.34427C8.84155 10.2539 8.43518 9.84659 8.43518 9.34477C8.43518 8.84205 8.84155 8.43568 9.34427 8.43568H14.6552C14.7734 8.43568 14.8915 8.45932 15.0025 8.50568C15.2252 8.5975 15.4025 8.77477 15.4943 8.9975C15.5397 9.10841 15.5643 9.22659 15.5643 9.34477V14.6548C15.5643 15.1575 15.1579 15.5639 14.6552 15.5639C14.1525 15.5639 13.7461 15.1575 13.7461 14.6548V11.5393L10.3479 14.9375C9.99245 15.292 9.417 15.292 9.06245 14.9375Z" fill="#180D03"/>
</svg>