<svg xmlns="http://www.w3.org/2000/svg" width="24" height="24" viewBox="0 0 24 24" fill="none">
  <path fill-rule="evenodd" clip-rule="evenodd" d="M18.3636 4.27273H21.0909C21.5936 4.27273 22 4.68 22 5.18182V9.72727C22 11.4818 20.5727 12.9091 18.8182 12.9091H18.0955C17.4055 15.22 15.4345 16.9773 13.0109 17.3664C13.3845 18.9755 14.8236 20.1818 16.5455 20.1818C17.0482 20.1818 17.4545 20.5891 17.4545 21.0909C17.4545 21.5927 17.0482 22 16.5455 22H7.45455C6.95182 22 6.54545 21.5927 6.54545 21.0909C6.54545 20.5891 6.95182 20.1818 7.45455 20.1818C9.17636 20.1818 10.6155 18.9755 10.9891 17.3664C8.56545 16.9773 6.59455 15.22 5.90455 12.9091H5.18182C3.42727 12.9091 2 11.4818 2 9.72727V5.18182C2 4.68 2.40636 4.27273 2.90909 4.27273H5.63636V2.90909C5.63636 2.40727 6.04273 2 6.54545 2H17.4545C17.9573 2 18.3636 2.40727 18.3636 2.90909V4.27273ZM7.45455 11.0909C7.45455 13.5973 9.49364 15.6364 12 15.6364C14.5064 15.6364 16.5455 13.5973 16.5455 11.0909V3.81821H7.45455V11.0909ZM18.8182 11.0909C19.57 11.0909 20.1818 10.4791 20.1818 9.72729V6.09092H18.3636V11.0909H18.8182ZM5.18182 11.0909C4.43 11.0909 3.81818 10.4791 3.81818 9.72729V6.09092H5.63636V11.0909H5.18182Z" fill="#180D03"/>
</svg>