<svg width="32" height="32" viewBox="0 0 32 32" fill="none" xmlns="http://www.w3.org/2000/svg">
<g clip-path="url(#clip0_1_2554)">
<path d="M13.0673 11.1818V21H10.9915V13.1522H10.9339L8.68555 14.5616V12.7207L11.1161 11.1818H13.0673ZM19.0634 21.1342C18.3252 21.1342 17.6684 21.0144 17.0931 20.7747C16.521 20.5318 16.072 20.201 15.746 19.7823C15.42 19.3636 15.257 18.889 15.257 18.3585C15.257 17.9494 15.3497 17.5739 15.535 17.2319C15.7236 16.8867 15.9793 16.6007 16.3021 16.3738C16.6249 16.1436 16.986 15.9966 17.3855 15.9327V15.8656C16.8614 15.7601 16.4363 15.506 16.1103 15.1033C15.7843 14.6974 15.6213 14.226 15.6213 13.6891C15.6213 13.1809 15.7699 12.7287 16.0672 12.3324C16.3644 11.9329 16.7719 11.6197 17.2896 11.3928C17.8106 11.1626 18.4019 11.0476 19.0634 11.0476C19.725 11.0476 20.3147 11.1626 20.8324 11.3928C21.3534 11.6229 21.7625 11.9377 22.0597 12.3372C22.3569 12.7335 22.5071 13.1841 22.5103 13.6891C22.5071 14.2292 22.341 14.7006 22.0118 15.1033C21.6826 15.506 21.2607 15.7601 20.7461 15.8656V15.9327C21.1392 15.9966 21.4956 16.1436 21.8152 16.3738C22.138 16.6007 22.3937 16.8867 22.5823 17.2319C22.774 17.5739 22.8715 17.9494 22.8747 18.3585C22.8715 18.889 22.7069 19.3636 22.3809 19.7823C22.0549 20.201 21.6043 20.5318 21.029 20.7747C20.4569 21.0144 19.8017 21.1342 19.0634 21.1342ZM19.0634 19.6097C19.3926 19.6097 19.6803 19.5506 19.9264 19.4324C20.1725 19.3109 20.3642 19.1447 20.5016 18.9338C20.6423 18.7196 20.7126 18.4735 20.7126 18.1955C20.7126 17.911 20.6407 17.6602 20.4968 17.4428C20.353 17.2223 20.1581 17.0497 19.912 16.9251C19.6659 16.7972 19.383 16.7333 19.0634 16.7333C18.747 16.7333 18.4642 16.7972 18.2149 16.9251C17.9656 17.0497 17.769 17.2223 17.6252 17.4428C17.4846 17.6602 17.4143 17.911 17.4143 18.1955C17.4143 18.4735 17.483 18.7196 17.6204 18.9338C17.7579 19.1447 17.9512 19.3109 18.2005 19.4324C18.4498 19.5506 18.7374 19.6097 19.0634 19.6097ZM19.0634 15.2232C19.3383 15.2232 19.5828 15.1673 19.7969 15.0554C20.0111 14.9435 20.1788 14.7885 20.3003 14.5904C20.4217 14.3922 20.4825 14.1637 20.4825 13.9048C20.4825 13.6491 20.4217 13.4254 20.3003 13.2337C20.1788 13.0387 20.0127 12.8869 19.8017 12.7782C19.5908 12.6664 19.3447 12.6104 19.0634 12.6104C18.7854 12.6104 18.5393 12.6664 18.3252 12.7782C18.111 12.8869 17.9432 13.0387 17.8218 13.2337C17.7035 13.4254 17.6444 13.6491 17.6444 13.9048C17.6444 14.1637 17.7051 14.3922 17.8266 14.5904C17.948 14.7885 18.1158 14.9435 18.3299 15.0554C18.5441 15.1673 18.7886 15.2232 19.0634 15.2232Z" fill="#4F4F4F"/>
<path d="M24.7299 9.46792V2.67957H26.4461V9.46792H24.7299ZM22.1938 6.93188V5.21561H28.9822V6.93188H22.1938Z" fill="#4F4F4F"/>
<path d="M20 2.57976C18.7326 2.20256 17.3899 2 16 2C8.26801 2 2 8.26801 2 16C2 23.732 8.26801 30 16 30C23.732 30 30 23.732 30 16C30 14.7915 29.8469 13.6187 29.5589 12.5" stroke="#4F4F4F" stroke-width="2.5"/>
</g>
<defs>
<clipPath id="clip0_1_2554">
<rect width="32" height="32" fill="white"/>
</clipPath>
</defs>
</svg>
