<svg width="26" height="28" viewBox="0 0 26 28" fill="none" xmlns="http://www.w3.org/2000/svg">
<g clip-path="url(#clip0_1_2563)">
<path d="M4.07441 25.966C4.01913 27.1971 3.16832 27.9981 2.03128 27.9981C1.43512 27.9981 0.921874 27.7744 0.517197 27.3328C0.179637 26.9677 0 26.4936 0 25.9602C0 25.4269 0.213196 24.9241 0.623795 24.5322C1.01268 24.1556 1.4904 23.9702 2.07471 23.9702C2.88999 23.9702 3.52168 24.3583 3.82963 25.0274H3.11502C2.8505 24.7005 2.47939 24.5322 2.02931 24.5322C1.65227 24.5322 1.30286 24.6737 1.03834 24.9356C0.756055 25.2128 0.600106 25.5951 0.600106 25.966C0.600106 26.3751 0.746185 26.7459 1.00478 27.0078C1.28115 27.285 1.65819 27.4437 2.02931 27.4437C2.63139 27.4437 3.10318 27.1321 3.40718 26.5127H1.59502V25.9679H4.07046L4.07441 25.966Z" fill="#4F4F4F"/>
<path d="M4.6984 27.9235H4.08447L5.64988 24.0486H6.21248L7.77592 27.9235H7.14028L6.70204 26.7956H5.14848L4.6984 27.9235ZM5.93019 24.7788L5.35575 26.2508H6.49279L5.93019 24.7788Z" fill="#4F4F4F"/>
<path d="M7.9927 27.9235V24.0486H8.85338L10.0121 27.0461L11.1709 24.0486H12.0217V27.9235H11.4749L11.5144 24.5609L10.2135 27.9235H9.80289L8.50792 24.5609L8.5474 27.9235H7.99072H7.9927Z" fill="#4F4F4F"/>
<path d="M14.5701 28C13.9779 28 13.4785 27.7878 13.0837 27.3845C12.7066 26.9983 12.5151 26.5185 12.5151 25.945C12.5151 25.4116 12.7244 24.9203 13.1231 24.5438C13.5179 24.1672 14.0134 23.9722 14.58 23.9722C15.5137 23.9722 16.3132 24.5667 16.5718 25.5206H15.5137C15.3005 25.1383 14.9787 24.9376 14.5859 24.9376C13.9897 24.9376 13.5219 25.3849 13.5219 25.9507C13.5219 26.5663 14.0174 27.0404 14.5681 27.0404C14.9452 27.0404 15.2768 26.8435 15.49 26.4841H16.554C16.2895 27.4265 15.5295 27.9981 14.5681 27.9981L14.5701 28Z" fill="#4F4F4F"/>
<path d="M17.545 27.9235H16.4751L18.0109 24.0486H18.8104L20.3462 27.9235H19.2664L19.069 27.3615H17.7464L17.5431 27.9235H17.545ZM18.4116 25.3179L18.0129 26.5605H18.8064L18.4116 25.3179Z" fill="#4F4F4F"/>
<path d="M20.4253 27.9235V24.0486H21.7538C22.1763 24.0486 22.4961 24.0753 22.7665 24.2608C23.1218 24.4997 23.3074 24.8649 23.3074 25.3447C23.3074 25.9717 22.9698 26.4401 22.4013 26.593L23.3804 27.9235H22.1703L21.4044 26.6752V27.9235H20.4253ZM21.5959 25.836C22.0795 25.836 22.3164 25.7155 22.3164 25.3676C22.3164 25.0465 22.1091 24.9146 21.6749 24.9146H21.4044V25.836H21.5959Z" fill="#4F4F4F"/>
<path d="M23.8247 27.9235V24.0486H25.9961V24.905H24.8038V25.532H25.9961V26.3923H24.8038V27.069H25.9961V27.9254H23.8247V27.9235Z" fill="#4F4F4F"/>
<path d="M25.2874 13.4064C25.1808 13.3471 25.0623 13.3089 24.934 13.2917C24.9044 13.286 24.8748 13.286 24.8432 13.2821C24.8274 13.2821 24.8116 13.2783 24.7958 13.2783H24.7504C24.7109 13.2783 24.6695 13.2745 24.63 13.2783H16.8049C16.2522 13.2783 15.8021 13.7123 15.8021 14.2494C15.8021 14.7866 16.2502 15.2206 16.8049 15.2206H19.845C19.9456 15.2206 20.0266 15.3008 20.0266 15.3983C20.0266 15.4538 19.995 15.5016 19.9535 15.5341C18.2874 16.3962 16.1436 16.9181 13.7965 16.9181C13.226 16.9181 12.6674 16.8856 12.1245 16.8263V19.0305C12.5983 19.0649 13.078 19.084 13.5656 19.084C16.8306 19.084 19.7996 18.3117 22.0263 17.0481V17.0519C22.0539 17.0385 22.0855 17.029 22.119 17.029C22.2276 17.029 22.3164 17.115 22.3164 17.2201C22.3164 17.2393 22.3125 17.2584 22.3066 17.2756L21.8427 18.4952C21.5979 19.1375 21.9374 19.8487 22.6007 20.0838C22.7468 20.1354 22.8948 20.1603 23.0429 20.1603C23.564 20.1603 24.0516 19.8506 24.2431 19.3497L25.921 14.9395C26.148 14.3412 25.8638 13.6855 25.2874 13.4083V13.4064Z" fill="#4F4F4F"/>
<path d="M13.7985 5.07739C16.1634 5.07739 18.3269 5.60501 19.9989 6.47863C19.9989 6.47863 21.0609 7.21844 21.5663 6.50922C22.1467 5.69294 20.9879 5.18636 20.9879 5.18636C18.9132 4.242 16.345 3.68188 13.5675 3.68188C13.0799 3.68188 12.6002 3.701 12.1265 3.73541V5.16915C12.6693 5.10989 13.228 5.07739 13.7985 5.07739Z" fill="#4F4F4F"/>
<path d="M1.78436 0C0.807213 0 0.015625 0.766573 0.015625 1.71284V20.3935C0.015625 21.3398 0.807213 22.1064 1.78436 22.1064H12.1263V19.0286C5.90417 18.5889 1.06976 15.3334 1.06976 11.382C1.06976 7.4306 5.90417 4.17505 12.1263 3.73537V0H1.78436Z" fill="#4F4F4F"/>
<path d="M4.20264 10.9958C4.20264 13.913 7.62364 16.335 12.1264 16.8225V5.16907C7.62364 5.65654 4.20264 8.07861 4.20264 10.9958Z" fill="#4F4F4F"/>
</g>
<defs>
<clipPath id="clip0_1_2563">
<rect width="26" height="28" fill="white"/>
</clipPath>
</defs>
</svg>
